M48
; DRILL file KiCad 10.0.5 date 2026-09-07T19:40:05
; FORMAT={-:-/ absolute / metric / decimal}
; #@! TF.CreationDate,2026-09-07T19:40:05-04:00
; #@! TF.GenerationSoftware,Kicad,Pcbnew,10.0.5
; #@! TF.FileFunction,Plated,1,2,PTH
FMAT,2
METRIC
; #@! TA.AperFunction,Plated,PTH,ViaDrill
T1C0.300
; #@! TA.AperFunction,Plated,PTH,ComponentDrill
T2C0.750
; #@! TA.AperFunction,Plated,PTH,ComponentDrill
T3C0.800
; #@! TA.AperFunction,Plated,PTH,ComponentDrill
T4C1.000
; #@! TA.AperFunction,Plated,PTH,ComponentDrill
T5C1.020
; #@! TA.AperFunction,Plated,PTH,ComponentDrill
T6C1.100
%
G90
G05
T1
X85.7Y-103.7
X86.5Y-126.0
X87.3Y-102.0
X101.8Y-141.3
X106.7Y-116.1
X110.4Y-124.2
X111.1Y-105.7
X111.1Y-115.4
X112.7Y-117.1
X129.3Y-144.8
X129.3Y-146.3
X132.2Y-104.5
X142.5Y-139.4
X150.2Y-104.4
X151.3Y-104.4
X153.1Y-104.4
T2
X135.492Y-129.5
X137.27Y-129.5
X139.048Y-129.5
X142.492Y-129.5
X144.27Y-129.5
X146.048Y-129.5
X149.492Y-129.5
X151.27Y-129.5
X153.048Y-129.5
X156.262Y-129.36
X158.04Y-129.36
X159.818Y-129.36
T3
X83.0Y-106.5
X83.0Y-111.5
X83.0Y-120.5
X83.0Y-125.5
X90.0Y-105.38
X90.0Y-113.0
X90.0Y-119.38
X90.0Y-127.0
X92.54Y-105.38
X92.54Y-113.0
X92.54Y-119.38
X92.54Y-127.0
X95.08Y-105.38
X95.08Y-113.0
X95.08Y-119.38
X95.08Y-127.0
X97.62Y-105.38
X97.62Y-113.0
X97.62Y-119.38
X97.62Y-127.0
X100.16Y-105.38
X100.16Y-113.0
X100.16Y-119.38
X100.16Y-127.0
X102.0Y-90.42
X102.0Y-100.58
X102.7Y-105.38
X102.7Y-113.0
X102.7Y-119.38
X102.7Y-127.0
X105.24Y-105.38
X105.24Y-113.0
X105.24Y-119.38
X105.24Y-127.0
X106.5Y-90.42
X106.5Y-100.58
X107.78Y-105.38
X107.78Y-113.0
X107.78Y-119.38
X107.78Y-127.0
X111.0Y-90.42
X111.0Y-100.58
X118.92Y-113.0
X118.92Y-117.0
X118.92Y-121.0
X118.92Y-125.0
X118.92Y-129.0
X129.08Y-113.0
X129.08Y-117.0
X129.08Y-121.0
X129.08Y-125.0
X129.08Y-129.0
X135.42Y-136.0
X137.25Y-113.42
X137.25Y-123.58
X144.25Y-113.42
X144.25Y-123.58
X145.58Y-136.0
X151.3Y-113.42
X151.3Y-123.58
X158.0Y-113.42
X158.0Y-123.58
T4
X135.5Y-91.26
X135.5Y-106.5
X138.04Y-91.26
X138.04Y-106.5
X140.58Y-91.26
X140.58Y-106.5
X143.12Y-91.26
X143.12Y-106.5
X145.66Y-91.26
X145.66Y-106.5
X148.2Y-91.26
X148.2Y-106.5
T5
X89.1Y-136.0
X89.1Y-151.24
X91.64Y-136.0
X91.64Y-151.24
X94.18Y-136.0
X94.18Y-151.24
X96.72Y-136.0
X96.72Y-151.24
X99.26Y-136.0
X99.26Y-151.24
X101.8Y-136.0
X101.8Y-151.24
X104.34Y-136.0
X104.34Y-151.24
X106.88Y-136.0
X106.88Y-151.24
X109.42Y-136.0
X109.42Y-151.24
X111.96Y-136.0
X111.96Y-151.24
X114.5Y-136.0
X114.5Y-151.24
X117.04Y-136.0
X117.04Y-151.24
X119.58Y-136.0
X119.58Y-151.24
X122.12Y-136.0
X122.12Y-151.24
X124.66Y-136.0
X124.66Y-151.24
X152.65Y-139.69
X155.19Y-139.69
X157.73Y-139.69
X160.27Y-139.69
X162.81Y-139.69
X165.35Y-139.69
T6
X138.5Y-142.5
X138.5Y-149.0
X143.0Y-142.5
X143.0Y-149.0
M30
