%TF.GenerationSoftware,KiCad,Pcbnew,10.0.5*%
%TF.CreationDate,2026-09-07T19:39:46-04:00*%
%TF.ProjectId,STM32_Environmental_Monitor_PCB,53544d33-325f-4456-9e76-69726f6e6d65,rev?*%
%TF.SameCoordinates,Original*%
%TF.FileFunction,Legend,Top*%
%TF.FilePolarity,Positive*%
%FSLAX46Y46*%
G04 Gerber Fmt 4.6, Leading zero omitted, Abs format (unit mm)*
G04 Created by KiCad (PCBNEW 10.0.5) date 2026-09-07 19:39:46*
%MOMM*%
%LPD*%
G01*
G04 APERTURE LIST*
%ADD10C,0.200000*%
%ADD11C,0.150000*%
%ADD12C,0.120000*%
%ADD13C,0.100000*%
G04 APERTURE END LIST*
D10*
X84978572Y-93870911D02*
X84978572Y-94737577D01*
X84978572Y-93994720D02*
X85040477Y-93932815D01*
X85040477Y-93932815D02*
X85164287Y-93870911D01*
X85164287Y-93870911D02*
X85350001Y-93870911D01*
X85350001Y-93870911D02*
X85473810Y-93932815D01*
X85473810Y-93932815D02*
X85535715Y-94056625D01*
X85535715Y-94056625D02*
X85535715Y-94737577D01*
X86340477Y-94737577D02*
X86216667Y-94675673D01*
X86216667Y-94675673D02*
X86154762Y-94613768D01*
X86154762Y-94613768D02*
X86092858Y-94489958D01*
X86092858Y-94489958D02*
X86092858Y-94118530D01*
X86092858Y-94118530D02*
X86154762Y-93994720D01*
X86154762Y-93994720D02*
X86216667Y-93932815D01*
X86216667Y-93932815D02*
X86340477Y-93870911D01*
X86340477Y-93870911D02*
X86526191Y-93870911D01*
X86526191Y-93870911D02*
X86650000Y-93932815D01*
X86650000Y-93932815D02*
X86711905Y-93994720D01*
X86711905Y-93994720D02*
X86773810Y-94118530D01*
X86773810Y-94118530D02*
X86773810Y-94489958D01*
X86773810Y-94489958D02*
X86711905Y-94613768D01*
X86711905Y-94613768D02*
X86650000Y-94675673D01*
X86650000Y-94675673D02*
X86526191Y-94737577D01*
X86526191Y-94737577D02*
X86340477Y-94737577D01*
X88321428Y-94737577D02*
X88321428Y-93870911D01*
X88321428Y-93994720D02*
X88383333Y-93932815D01*
X88383333Y-93932815D02*
X88507143Y-93870911D01*
X88507143Y-93870911D02*
X88692857Y-93870911D01*
X88692857Y-93870911D02*
X88816666Y-93932815D01*
X88816666Y-93932815D02*
X88878571Y-94056625D01*
X88878571Y-94056625D02*
X88878571Y-94737577D01*
X88878571Y-94056625D02*
X88940476Y-93932815D01*
X88940476Y-93932815D02*
X89064285Y-93870911D01*
X89064285Y-93870911D02*
X89250000Y-93870911D01*
X89250000Y-93870911D02*
X89373809Y-93932815D01*
X89373809Y-93932815D02*
X89435714Y-94056625D01*
X89435714Y-94056625D02*
X89435714Y-94737577D01*
X90611904Y-94737577D02*
X90611904Y-94056625D01*
X90611904Y-94056625D02*
X90549999Y-93932815D01*
X90549999Y-93932815D02*
X90426190Y-93870911D01*
X90426190Y-93870911D02*
X90178571Y-93870911D01*
X90178571Y-93870911D02*
X90054761Y-93932815D01*
X90611904Y-94675673D02*
X90488095Y-94737577D01*
X90488095Y-94737577D02*
X90178571Y-94737577D01*
X90178571Y-94737577D02*
X90054761Y-94675673D01*
X90054761Y-94675673D02*
X89992857Y-94551863D01*
X89992857Y-94551863D02*
X89992857Y-94428053D01*
X89992857Y-94428053D02*
X90054761Y-94304244D01*
X90054761Y-94304244D02*
X90178571Y-94242339D01*
X90178571Y-94242339D02*
X90488095Y-94242339D01*
X90488095Y-94242339D02*
X90611904Y-94180434D01*
X91788094Y-93870911D02*
X91788094Y-94923292D01*
X91788094Y-94923292D02*
X91726189Y-95047101D01*
X91726189Y-95047101D02*
X91664285Y-95109006D01*
X91664285Y-95109006D02*
X91540475Y-95170911D01*
X91540475Y-95170911D02*
X91354761Y-95170911D01*
X91354761Y-95170911D02*
X91230951Y-95109006D01*
X91788094Y-94675673D02*
X91664285Y-94737577D01*
X91664285Y-94737577D02*
X91416666Y-94737577D01*
X91416666Y-94737577D02*
X91292856Y-94675673D01*
X91292856Y-94675673D02*
X91230951Y-94613768D01*
X91230951Y-94613768D02*
X91169047Y-94489958D01*
X91169047Y-94489958D02*
X91169047Y-94118530D01*
X91169047Y-94118530D02*
X91230951Y-93994720D01*
X91230951Y-93994720D02*
X91292856Y-93932815D01*
X91292856Y-93932815D02*
X91416666Y-93870911D01*
X91416666Y-93870911D02*
X91664285Y-93870911D01*
X91664285Y-93870911D02*
X91788094Y-93932815D01*
X92407141Y-94737577D02*
X92407141Y-93870911D01*
X92407141Y-93437577D02*
X92345237Y-93499482D01*
X92345237Y-93499482D02*
X92407141Y-93561387D01*
X92407141Y-93561387D02*
X92469046Y-93499482D01*
X92469046Y-93499482D02*
X92407141Y-93437577D01*
X92407141Y-93437577D02*
X92407141Y-93561387D01*
X93583332Y-94675673D02*
X93459523Y-94737577D01*
X93459523Y-94737577D02*
X93211904Y-94737577D01*
X93211904Y-94737577D02*
X93088094Y-94675673D01*
X93088094Y-94675673D02*
X93026189Y-94613768D01*
X93026189Y-94613768D02*
X92964285Y-94489958D01*
X92964285Y-94489958D02*
X92964285Y-94118530D01*
X92964285Y-94118530D02*
X93026189Y-93994720D01*
X93026189Y-93994720D02*
X93088094Y-93932815D01*
X93088094Y-93932815D02*
X93211904Y-93870911D01*
X93211904Y-93870911D02*
X93459523Y-93870911D01*
X93459523Y-93870911D02*
X93583332Y-93932815D01*
X84483334Y-96768600D02*
X84607143Y-96830504D01*
X84607143Y-96830504D02*
X84854762Y-96830504D01*
X84854762Y-96830504D02*
X84978572Y-96768600D01*
X84978572Y-96768600D02*
X85040476Y-96644790D01*
X85040476Y-96644790D02*
X85040476Y-96582885D01*
X85040476Y-96582885D02*
X84978572Y-96459076D01*
X84978572Y-96459076D02*
X84854762Y-96397171D01*
X84854762Y-96397171D02*
X84669048Y-96397171D01*
X84669048Y-96397171D02*
X84545238Y-96335266D01*
X84545238Y-96335266D02*
X84483334Y-96211457D01*
X84483334Y-96211457D02*
X84483334Y-96149552D01*
X84483334Y-96149552D02*
X84545238Y-96025742D01*
X84545238Y-96025742D02*
X84669048Y-95963838D01*
X84669048Y-95963838D02*
X84854762Y-95963838D01*
X84854762Y-95963838D02*
X84978572Y-96025742D01*
X85597619Y-96830504D02*
X85597619Y-95963838D01*
X85597619Y-96087647D02*
X85659524Y-96025742D01*
X85659524Y-96025742D02*
X85783334Y-95963838D01*
X85783334Y-95963838D02*
X85969048Y-95963838D01*
X85969048Y-95963838D02*
X86092857Y-96025742D01*
X86092857Y-96025742D02*
X86154762Y-96149552D01*
X86154762Y-96149552D02*
X86154762Y-96830504D01*
X86154762Y-96149552D02*
X86216667Y-96025742D01*
X86216667Y-96025742D02*
X86340476Y-95963838D01*
X86340476Y-95963838D02*
X86526191Y-95963838D01*
X86526191Y-95963838D02*
X86650000Y-96025742D01*
X86650000Y-96025742D02*
X86711905Y-96149552D01*
X86711905Y-96149552D02*
X86711905Y-96830504D01*
X87516667Y-96830504D02*
X87392857Y-96768600D01*
X87392857Y-96768600D02*
X87330952Y-96706695D01*
X87330952Y-96706695D02*
X87269048Y-96582885D01*
X87269048Y-96582885D02*
X87269048Y-96211457D01*
X87269048Y-96211457D02*
X87330952Y-96087647D01*
X87330952Y-96087647D02*
X87392857Y-96025742D01*
X87392857Y-96025742D02*
X87516667Y-95963838D01*
X87516667Y-95963838D02*
X87702381Y-95963838D01*
X87702381Y-95963838D02*
X87826190Y-96025742D01*
X87826190Y-96025742D02*
X87888095Y-96087647D01*
X87888095Y-96087647D02*
X87950000Y-96211457D01*
X87950000Y-96211457D02*
X87950000Y-96582885D01*
X87950000Y-96582885D02*
X87888095Y-96706695D01*
X87888095Y-96706695D02*
X87826190Y-96768600D01*
X87826190Y-96768600D02*
X87702381Y-96830504D01*
X87702381Y-96830504D02*
X87516667Y-96830504D01*
X88507142Y-96830504D02*
X88507142Y-95530504D01*
X88630952Y-96335266D02*
X89002380Y-96830504D01*
X89002380Y-95963838D02*
X88507142Y-96459076D01*
X90054761Y-96768600D02*
X89930952Y-96830504D01*
X89930952Y-96830504D02*
X89683333Y-96830504D01*
X89683333Y-96830504D02*
X89559523Y-96768600D01*
X89559523Y-96768600D02*
X89497619Y-96644790D01*
X89497619Y-96644790D02*
X89497619Y-96149552D01*
X89497619Y-96149552D02*
X89559523Y-96025742D01*
X89559523Y-96025742D02*
X89683333Y-95963838D01*
X89683333Y-95963838D02*
X89930952Y-95963838D01*
X89930952Y-95963838D02*
X90054761Y-96025742D01*
X90054761Y-96025742D02*
X90116666Y-96149552D01*
X90116666Y-96149552D02*
X90116666Y-96273361D01*
X90116666Y-96273361D02*
X89497619Y-96397171D01*
X91664285Y-95963838D02*
X91664285Y-97263838D01*
X91664285Y-96025742D02*
X91788095Y-95963838D01*
X91788095Y-95963838D02*
X92035714Y-95963838D01*
X92035714Y-95963838D02*
X92159523Y-96025742D01*
X92159523Y-96025742D02*
X92221428Y-96087647D01*
X92221428Y-96087647D02*
X92283333Y-96211457D01*
X92283333Y-96211457D02*
X92283333Y-96582885D01*
X92283333Y-96582885D02*
X92221428Y-96706695D01*
X92221428Y-96706695D02*
X92159523Y-96768600D01*
X92159523Y-96768600D02*
X92035714Y-96830504D01*
X92035714Y-96830504D02*
X91788095Y-96830504D01*
X91788095Y-96830504D02*
X91664285Y-96768600D01*
X93026190Y-96830504D02*
X92902380Y-96768600D01*
X92902380Y-96768600D02*
X92840475Y-96644790D01*
X92840475Y-96644790D02*
X92840475Y-95530504D01*
X93459523Y-96768600D02*
X93583332Y-96830504D01*
X93583332Y-96830504D02*
X93830951Y-96830504D01*
X93830951Y-96830504D02*
X93954761Y-96768600D01*
X93954761Y-96768600D02*
X94016665Y-96644790D01*
X94016665Y-96644790D02*
X94016665Y-96582885D01*
X94016665Y-96582885D02*
X93954761Y-96459076D01*
X93954761Y-96459076D02*
X93830951Y-96397171D01*
X93830951Y-96397171D02*
X93645237Y-96397171D01*
X93645237Y-96397171D02*
X93521427Y-96335266D01*
X93521427Y-96335266D02*
X93459523Y-96211457D01*
X93459523Y-96211457D02*
X93459523Y-96149552D01*
X93459523Y-96149552D02*
X93521427Y-96025742D01*
X93521427Y-96025742D02*
X93645237Y-95963838D01*
X93645237Y-95963838D02*
X93830951Y-95963838D01*
X93830951Y-95963838D02*
X93954761Y-96025742D01*
D11*
X116083333Y-124704819D02*
X115750000Y-124228628D01*
X115511905Y-124704819D02*
X115511905Y-123704819D01*
X115511905Y-123704819D02*
X115892857Y-123704819D01*
X115892857Y-123704819D02*
X115988095Y-123752438D01*
X115988095Y-123752438D02*
X116035714Y-123800057D01*
X116035714Y-123800057D02*
X116083333Y-123895295D01*
X116083333Y-123895295D02*
X116083333Y-124038152D01*
X116083333Y-124038152D02*
X116035714Y-124133390D01*
X116035714Y-124133390D02*
X115988095Y-124181009D01*
X115988095Y-124181009D02*
X115892857Y-124228628D01*
X115892857Y-124228628D02*
X115511905Y-124228628D01*
X116988095Y-123704819D02*
X116511905Y-123704819D01*
X116511905Y-123704819D02*
X116464286Y-124181009D01*
X116464286Y-124181009D02*
X116511905Y-124133390D01*
X116511905Y-124133390D02*
X116607143Y-124085771D01*
X116607143Y-124085771D02*
X116845238Y-124085771D01*
X116845238Y-124085771D02*
X116940476Y-124133390D01*
X116940476Y-124133390D02*
X116988095Y-124181009D01*
X116988095Y-124181009D02*
X117035714Y-124276247D01*
X117035714Y-124276247D02*
X117035714Y-124514342D01*
X117035714Y-124514342D02*
X116988095Y-124609580D01*
X116988095Y-124609580D02*
X116940476Y-124657200D01*
X116940476Y-124657200D02*
X116845238Y-124704819D01*
X116845238Y-124704819D02*
X116607143Y-124704819D01*
X116607143Y-124704819D02*
X116511905Y-124657200D01*
X116511905Y-124657200D02*
X116464286Y-124609580D01*
X136907200Y-147083332D02*
X136954819Y-146940475D01*
X136954819Y-146940475D02*
X136954819Y-146702380D01*
X136954819Y-146702380D02*
X136907200Y-146607142D01*
X136907200Y-146607142D02*
X136859580Y-146559523D01*
X136859580Y-146559523D02*
X136764342Y-146511904D01*
X136764342Y-146511904D02*
X136669104Y-146511904D01*
X136669104Y-146511904D02*
X136573866Y-146559523D01*
X136573866Y-146559523D02*
X136526247Y-146607142D01*
X136526247Y-146607142D02*
X136478628Y-146702380D01*
X136478628Y-146702380D02*
X136431009Y-146892856D01*
X136431009Y-146892856D02*
X136383390Y-146988094D01*
X136383390Y-146988094D02*
X136335771Y-147035713D01*
X136335771Y-147035713D02*
X136240533Y-147083332D01*
X136240533Y-147083332D02*
X136145295Y-147083332D01*
X136145295Y-147083332D02*
X136050057Y-147035713D01*
X136050057Y-147035713D02*
X136002438Y-146988094D01*
X136002438Y-146988094D02*
X135954819Y-146892856D01*
X135954819Y-146892856D02*
X135954819Y-146654761D01*
X135954819Y-146654761D02*
X136002438Y-146511904D01*
X135954819Y-146178570D02*
X136954819Y-145940475D01*
X136954819Y-145940475D02*
X136240533Y-145749999D01*
X136240533Y-145749999D02*
X136954819Y-145559523D01*
X136954819Y-145559523D02*
X135954819Y-145321428D01*
X136954819Y-144416666D02*
X136954819Y-144988094D01*
X136954819Y-144702380D02*
X135954819Y-144702380D01*
X135954819Y-144702380D02*
X136097676Y-144797618D01*
X136097676Y-144797618D02*
X136192914Y-144892856D01*
X136192914Y-144892856D02*
X136240533Y-144988094D01*
X151174761Y-126250057D02*
X151079523Y-126202438D01*
X151079523Y-126202438D02*
X150984285Y-126107200D01*
X150984285Y-126107200D02*
X150841428Y-125964342D01*
X150841428Y-125964342D02*
X150746190Y-125916723D01*
X150746190Y-125916723D02*
X150650952Y-125916723D01*
X150698571Y-126154819D02*
X150603333Y-126107200D01*
X150603333Y-126107200D02*
X150508095Y-126011961D01*
X150508095Y-126011961D02*
X150460476Y-125821485D01*
X150460476Y-125821485D02*
X150460476Y-125488152D01*
X150460476Y-125488152D02*
X150508095Y-125297676D01*
X150508095Y-125297676D02*
X150603333Y-125202438D01*
X150603333Y-125202438D02*
X150698571Y-125154819D01*
X150698571Y-125154819D02*
X150889047Y-125154819D01*
X150889047Y-125154819D02*
X150984285Y-125202438D01*
X150984285Y-125202438D02*
X151079523Y-125297676D01*
X151079523Y-125297676D02*
X151127142Y-125488152D01*
X151127142Y-125488152D02*
X151127142Y-125821485D01*
X151127142Y-125821485D02*
X151079523Y-126011961D01*
X151079523Y-126011961D02*
X150984285Y-126107200D01*
X150984285Y-126107200D02*
X150889047Y-126154819D01*
X150889047Y-126154819D02*
X150698571Y-126154819D01*
X151460476Y-125154819D02*
X152079523Y-125154819D01*
X152079523Y-125154819D02*
X151746190Y-125535771D01*
X151746190Y-125535771D02*
X151889047Y-125535771D01*
X151889047Y-125535771D02*
X151984285Y-125583390D01*
X151984285Y-125583390D02*
X152031904Y-125631009D01*
X152031904Y-125631009D02*
X152079523Y-125726247D01*
X152079523Y-125726247D02*
X152079523Y-125964342D01*
X152079523Y-125964342D02*
X152031904Y-126059580D01*
X152031904Y-126059580D02*
X151984285Y-126107200D01*
X151984285Y-126107200D02*
X151889047Y-126154819D01*
X151889047Y-126154819D02*
X151603333Y-126154819D01*
X151603333Y-126154819D02*
X151508095Y-126107200D01*
X151508095Y-126107200D02*
X151460476Y-126059580D01*
X85859580Y-123166666D02*
X85907200Y-123214285D01*
X85907200Y-123214285D02*
X85954819Y-123357142D01*
X85954819Y-123357142D02*
X85954819Y-123452380D01*
X85954819Y-123452380D02*
X85907200Y-123595237D01*
X85907200Y-123595237D02*
X85811961Y-123690475D01*
X85811961Y-123690475D02*
X85716723Y-123738094D01*
X85716723Y-123738094D02*
X85526247Y-123785713D01*
X85526247Y-123785713D02*
X85383390Y-123785713D01*
X85383390Y-123785713D02*
X85192914Y-123738094D01*
X85192914Y-123738094D02*
X85097676Y-123690475D01*
X85097676Y-123690475D02*
X85002438Y-123595237D01*
X85002438Y-123595237D02*
X84954819Y-123452380D01*
X84954819Y-123452380D02*
X84954819Y-123357142D01*
X84954819Y-123357142D02*
X85002438Y-123214285D01*
X85002438Y-123214285D02*
X85050057Y-123166666D01*
X85050057Y-122785713D02*
X85002438Y-122738094D01*
X85002438Y-122738094D02*
X84954819Y-122642856D01*
X84954819Y-122642856D02*
X84954819Y-122404761D01*
X84954819Y-122404761D02*
X85002438Y-122309523D01*
X85002438Y-122309523D02*
X85050057Y-122261904D01*
X85050057Y-122261904D02*
X85145295Y-122214285D01*
X85145295Y-122214285D02*
X85240533Y-122214285D01*
X85240533Y-122214285D02*
X85383390Y-122261904D01*
X85383390Y-122261904D02*
X85954819Y-122833332D01*
X85954819Y-122833332D02*
X85954819Y-122214285D01*
X147074819Y-119142857D02*
X146598628Y-119476190D01*
X147074819Y-119714285D02*
X146074819Y-119714285D01*
X146074819Y-119714285D02*
X146074819Y-119333333D01*
X146074819Y-119333333D02*
X146122438Y-119238095D01*
X146122438Y-119238095D02*
X146170057Y-119190476D01*
X146170057Y-119190476D02*
X146265295Y-119142857D01*
X146265295Y-119142857D02*
X146408152Y-119142857D01*
X146408152Y-119142857D02*
X146503390Y-119190476D01*
X146503390Y-119190476D02*
X146551009Y-119238095D01*
X146551009Y-119238095D02*
X146598628Y-119333333D01*
X146598628Y-119333333D02*
X146598628Y-119714285D01*
X147074819Y-118190476D02*
X147074819Y-118761904D01*
X147074819Y-118476190D02*
X146074819Y-118476190D01*
X146074819Y-118476190D02*
X146217676Y-118571428D01*
X146217676Y-118571428D02*
X146312914Y-118666666D01*
X146312914Y-118666666D02*
X146360533Y-118761904D01*
X147074819Y-117238095D02*
X147074819Y-117809523D01*
X147074819Y-117523809D02*
X146074819Y-117523809D01*
X146074819Y-117523809D02*
X146217676Y-117619047D01*
X146217676Y-117619047D02*
X146312914Y-117714285D01*
X146312914Y-117714285D02*
X146360533Y-117809523D01*
X104564819Y-144381904D02*
X105374342Y-144381904D01*
X105374342Y-144381904D02*
X105469580Y-144334285D01*
X105469580Y-144334285D02*
X105517200Y-144286666D01*
X105517200Y-144286666D02*
X105564819Y-144191428D01*
X105564819Y-144191428D02*
X105564819Y-144000952D01*
X105564819Y-144000952D02*
X105517200Y-143905714D01*
X105517200Y-143905714D02*
X105469580Y-143858095D01*
X105469580Y-143858095D02*
X105374342Y-143810476D01*
X105374342Y-143810476D02*
X104564819Y-143810476D01*
X105564819Y-142810476D02*
X105564819Y-143381904D01*
X105564819Y-143096190D02*
X104564819Y-143096190D01*
X104564819Y-143096190D02*
X104707676Y-143191428D01*
X104707676Y-143191428D02*
X104802914Y-143286666D01*
X104802914Y-143286666D02*
X104850533Y-143381904D01*
X85159819Y-149762856D02*
X84159819Y-149762856D01*
X84159819Y-149762856D02*
X85159819Y-149191428D01*
X85159819Y-149191428D02*
X84159819Y-149191428D01*
X84159819Y-148715237D02*
X84969342Y-148715237D01*
X84969342Y-148715237D02*
X85064580Y-148667618D01*
X85064580Y-148667618D02*
X85112200Y-148619999D01*
X85112200Y-148619999D02*
X85159819Y-148524761D01*
X85159819Y-148524761D02*
X85159819Y-148334285D01*
X85159819Y-148334285D02*
X85112200Y-148239047D01*
X85112200Y-148239047D02*
X85064580Y-148191428D01*
X85064580Y-148191428D02*
X84969342Y-148143809D01*
X84969342Y-148143809D02*
X84159819Y-148143809D01*
X85064580Y-147096190D02*
X85112200Y-147143809D01*
X85112200Y-147143809D02*
X85159819Y-147286666D01*
X85159819Y-147286666D02*
X85159819Y-147381904D01*
X85159819Y-147381904D02*
X85112200Y-147524761D01*
X85112200Y-147524761D02*
X85016961Y-147619999D01*
X85016961Y-147619999D02*
X84921723Y-147667618D01*
X84921723Y-147667618D02*
X84731247Y-147715237D01*
X84731247Y-147715237D02*
X84588390Y-147715237D01*
X84588390Y-147715237D02*
X84397914Y-147667618D01*
X84397914Y-147667618D02*
X84302676Y-147619999D01*
X84302676Y-147619999D02*
X84207438Y-147524761D01*
X84207438Y-147524761D02*
X84159819Y-147381904D01*
X84159819Y-147381904D02*
X84159819Y-147286666D01*
X84159819Y-147286666D02*
X84207438Y-147143809D01*
X84207438Y-147143809D02*
X84255057Y-147096190D01*
X85159819Y-146191428D02*
X85159819Y-146667618D01*
X85159819Y-146667618D02*
X84159819Y-146667618D01*
X84636009Y-145858094D02*
X84636009Y-145524761D01*
X85159819Y-145381904D02*
X85159819Y-145858094D01*
X85159819Y-145858094D02*
X84159819Y-145858094D01*
X84159819Y-145858094D02*
X84159819Y-145381904D01*
X84159819Y-144762856D02*
X84159819Y-144572380D01*
X84159819Y-144572380D02*
X84207438Y-144477142D01*
X84207438Y-144477142D02*
X84302676Y-144381904D01*
X84302676Y-144381904D02*
X84493152Y-144334285D01*
X84493152Y-144334285D02*
X84826485Y-144334285D01*
X84826485Y-144334285D02*
X85016961Y-144381904D01*
X85016961Y-144381904D02*
X85112200Y-144477142D01*
X85112200Y-144477142D02*
X85159819Y-144572380D01*
X85159819Y-144572380D02*
X85159819Y-144762856D01*
X85159819Y-144762856D02*
X85112200Y-144858094D01*
X85112200Y-144858094D02*
X85016961Y-144953332D01*
X85016961Y-144953332D02*
X84826485Y-145000951D01*
X84826485Y-145000951D02*
X84493152Y-145000951D01*
X84493152Y-145000951D02*
X84302676Y-144953332D01*
X84302676Y-144953332D02*
X84207438Y-144858094D01*
X84207438Y-144858094D02*
X84159819Y-144762856D01*
X84778866Y-143905713D02*
X84778866Y-143143809D01*
X84636009Y-142334285D02*
X84636009Y-142667618D01*
X85159819Y-142667618D02*
X84159819Y-142667618D01*
X84159819Y-142667618D02*
X84159819Y-142191428D01*
X84159819Y-141905713D02*
X84159819Y-141286666D01*
X84159819Y-141286666D02*
X84540771Y-141619999D01*
X84540771Y-141619999D02*
X84540771Y-141477142D01*
X84540771Y-141477142D02*
X84588390Y-141381904D01*
X84588390Y-141381904D02*
X84636009Y-141334285D01*
X84636009Y-141334285D02*
X84731247Y-141286666D01*
X84731247Y-141286666D02*
X84969342Y-141286666D01*
X84969342Y-141286666D02*
X85064580Y-141334285D01*
X85064580Y-141334285D02*
X85112200Y-141381904D01*
X85112200Y-141381904D02*
X85159819Y-141477142D01*
X85159819Y-141477142D02*
X85159819Y-141762856D01*
X85159819Y-141762856D02*
X85112200Y-141858094D01*
X85112200Y-141858094D02*
X85064580Y-141905713D01*
X84159819Y-140667618D02*
X84159819Y-140572380D01*
X84159819Y-140572380D02*
X84207438Y-140477142D01*
X84207438Y-140477142D02*
X84255057Y-140429523D01*
X84255057Y-140429523D02*
X84350295Y-140381904D01*
X84350295Y-140381904D02*
X84540771Y-140334285D01*
X84540771Y-140334285D02*
X84778866Y-140334285D01*
X84778866Y-140334285D02*
X84969342Y-140381904D01*
X84969342Y-140381904D02*
X85064580Y-140429523D01*
X85064580Y-140429523D02*
X85112200Y-140477142D01*
X85112200Y-140477142D02*
X85159819Y-140572380D01*
X85159819Y-140572380D02*
X85159819Y-140667618D01*
X85159819Y-140667618D02*
X85112200Y-140762856D01*
X85112200Y-140762856D02*
X85064580Y-140810475D01*
X85064580Y-140810475D02*
X84969342Y-140858094D01*
X84969342Y-140858094D02*
X84778866Y-140905713D01*
X84778866Y-140905713D02*
X84540771Y-140905713D01*
X84540771Y-140905713D02*
X84350295Y-140858094D01*
X84350295Y-140858094D02*
X84255057Y-140810475D01*
X84255057Y-140810475D02*
X84207438Y-140762856D01*
X84207438Y-140762856D02*
X84159819Y-140667618D01*
X84159819Y-140000951D02*
X84159819Y-139381904D01*
X84159819Y-139381904D02*
X84540771Y-139715237D01*
X84540771Y-139715237D02*
X84540771Y-139572380D01*
X84540771Y-139572380D02*
X84588390Y-139477142D01*
X84588390Y-139477142D02*
X84636009Y-139429523D01*
X84636009Y-139429523D02*
X84731247Y-139381904D01*
X84731247Y-139381904D02*
X84969342Y-139381904D01*
X84969342Y-139381904D02*
X85064580Y-139429523D01*
X85064580Y-139429523D02*
X85112200Y-139477142D01*
X85112200Y-139477142D02*
X85159819Y-139572380D01*
X85159819Y-139572380D02*
X85159819Y-139858094D01*
X85159819Y-139858094D02*
X85112200Y-139953332D01*
X85112200Y-139953332D02*
X85064580Y-140000951D01*
X85159819Y-138953332D02*
X84159819Y-138953332D01*
X85159819Y-138381904D02*
X84588390Y-138810475D01*
X84159819Y-138381904D02*
X84731247Y-138953332D01*
X84588390Y-137810475D02*
X84540771Y-137905713D01*
X84540771Y-137905713D02*
X84493152Y-137953332D01*
X84493152Y-137953332D02*
X84397914Y-138000951D01*
X84397914Y-138000951D02*
X84350295Y-138000951D01*
X84350295Y-138000951D02*
X84255057Y-137953332D01*
X84255057Y-137953332D02*
X84207438Y-137905713D01*
X84207438Y-137905713D02*
X84159819Y-137810475D01*
X84159819Y-137810475D02*
X84159819Y-137619999D01*
X84159819Y-137619999D02*
X84207438Y-137524761D01*
X84207438Y-137524761D02*
X84255057Y-137477142D01*
X84255057Y-137477142D02*
X84350295Y-137429523D01*
X84350295Y-137429523D02*
X84397914Y-137429523D01*
X84397914Y-137429523D02*
X84493152Y-137477142D01*
X84493152Y-137477142D02*
X84540771Y-137524761D01*
X84540771Y-137524761D02*
X84588390Y-137619999D01*
X84588390Y-137619999D02*
X84588390Y-137810475D01*
X84588390Y-137810475D02*
X84636009Y-137905713D01*
X84636009Y-137905713D02*
X84683628Y-137953332D01*
X84683628Y-137953332D02*
X84778866Y-138000951D01*
X84778866Y-138000951D02*
X84969342Y-138000951D01*
X84969342Y-138000951D02*
X85064580Y-137953332D01*
X85064580Y-137953332D02*
X85112200Y-137905713D01*
X85112200Y-137905713D02*
X85159819Y-137810475D01*
X85159819Y-137810475D02*
X85159819Y-137619999D01*
X85159819Y-137619999D02*
X85112200Y-137524761D01*
X85112200Y-137524761D02*
X85064580Y-137477142D01*
X85064580Y-137477142D02*
X84969342Y-137429523D01*
X84969342Y-137429523D02*
X84778866Y-137429523D01*
X84778866Y-137429523D02*
X84683628Y-137477142D01*
X84683628Y-137477142D02*
X84636009Y-137524761D01*
X84636009Y-137524761D02*
X84588390Y-137619999D01*
X88350819Y-140004397D02*
X89350819Y-139671064D01*
X89350819Y-139671064D02*
X88350819Y-139337731D01*
X89350819Y-139004397D02*
X88350819Y-139004397D01*
X89350819Y-138528207D02*
X88350819Y-138528207D01*
X88350819Y-138528207D02*
X89350819Y-137956779D01*
X89350819Y-137956779D02*
X88350819Y-137956779D01*
X89350819Y-149283220D02*
X88350819Y-149283220D01*
X88350819Y-149283220D02*
X88350819Y-149045125D01*
X88350819Y-149045125D02*
X88398438Y-148902268D01*
X88398438Y-148902268D02*
X88493676Y-148807030D01*
X88493676Y-148807030D02*
X88588914Y-148759411D01*
X88588914Y-148759411D02*
X88779390Y-148711792D01*
X88779390Y-148711792D02*
X88922247Y-148711792D01*
X88922247Y-148711792D02*
X89112723Y-148759411D01*
X89112723Y-148759411D02*
X89207961Y-148807030D01*
X89207961Y-148807030D02*
X89303200Y-148902268D01*
X89303200Y-148902268D02*
X89350819Y-149045125D01*
X89350819Y-149045125D02*
X89350819Y-149283220D01*
X89350819Y-147759411D02*
X89350819Y-148330839D01*
X89350819Y-148045125D02*
X88350819Y-148045125D01*
X88350819Y-148045125D02*
X88493676Y-148140363D01*
X88493676Y-148140363D02*
X88588914Y-148235601D01*
X88588914Y-148235601D02*
X88636533Y-148330839D01*
X90938438Y-140004398D02*
X90890819Y-140099636D01*
X90890819Y-140099636D02*
X90890819Y-140242493D01*
X90890819Y-140242493D02*
X90938438Y-140385350D01*
X90938438Y-140385350D02*
X91033676Y-140480588D01*
X91033676Y-140480588D02*
X91128914Y-140528207D01*
X91128914Y-140528207D02*
X91319390Y-140575826D01*
X91319390Y-140575826D02*
X91462247Y-140575826D01*
X91462247Y-140575826D02*
X91652723Y-140528207D01*
X91652723Y-140528207D02*
X91747961Y-140480588D01*
X91747961Y-140480588D02*
X91843200Y-140385350D01*
X91843200Y-140385350D02*
X91890819Y-140242493D01*
X91890819Y-140242493D02*
X91890819Y-140147255D01*
X91890819Y-140147255D02*
X91843200Y-140004398D01*
X91843200Y-140004398D02*
X91795580Y-139956779D01*
X91795580Y-139956779D02*
X91462247Y-139956779D01*
X91462247Y-139956779D02*
X91462247Y-140147255D01*
X91890819Y-139528207D02*
X90890819Y-139528207D01*
X90890819Y-139528207D02*
X91890819Y-138956779D01*
X91890819Y-138956779D02*
X90890819Y-138956779D01*
X91890819Y-138480588D02*
X90890819Y-138480588D01*
X90890819Y-138480588D02*
X90890819Y-138242493D01*
X90890819Y-138242493D02*
X90938438Y-138099636D01*
X90938438Y-138099636D02*
X91033676Y-138004398D01*
X91033676Y-138004398D02*
X91128914Y-137956779D01*
X91128914Y-137956779D02*
X91319390Y-137909160D01*
X91319390Y-137909160D02*
X91462247Y-137909160D01*
X91462247Y-137909160D02*
X91652723Y-137956779D01*
X91652723Y-137956779D02*
X91747961Y-138004398D01*
X91747961Y-138004398D02*
X91843200Y-138099636D01*
X91843200Y-138099636D02*
X91890819Y-138242493D01*
X91890819Y-138242493D02*
X91890819Y-138480588D01*
X91890819Y-149283220D02*
X90890819Y-149283220D01*
X90890819Y-149283220D02*
X90890819Y-149045125D01*
X90890819Y-149045125D02*
X90938438Y-148902268D01*
X90938438Y-148902268D02*
X91033676Y-148807030D01*
X91033676Y-148807030D02*
X91128914Y-148759411D01*
X91128914Y-148759411D02*
X91319390Y-148711792D01*
X91319390Y-148711792D02*
X91462247Y-148711792D01*
X91462247Y-148711792D02*
X91652723Y-148759411D01*
X91652723Y-148759411D02*
X91747961Y-148807030D01*
X91747961Y-148807030D02*
X91843200Y-148902268D01*
X91843200Y-148902268D02*
X91890819Y-149045125D01*
X91890819Y-149045125D02*
X91890819Y-149283220D01*
X90890819Y-148092744D02*
X90890819Y-147997506D01*
X90890819Y-147997506D02*
X90938438Y-147902268D01*
X90938438Y-147902268D02*
X90986057Y-147854649D01*
X90986057Y-147854649D02*
X91081295Y-147807030D01*
X91081295Y-147807030D02*
X91271771Y-147759411D01*
X91271771Y-147759411D02*
X91509866Y-147759411D01*
X91509866Y-147759411D02*
X91700342Y-147807030D01*
X91700342Y-147807030D02*
X91795580Y-147854649D01*
X91795580Y-147854649D02*
X91843200Y-147902268D01*
X91843200Y-147902268D02*
X91890819Y-147997506D01*
X91890819Y-147997506D02*
X91890819Y-148092744D01*
X91890819Y-148092744D02*
X91843200Y-148187982D01*
X91843200Y-148187982D02*
X91795580Y-148235601D01*
X91795580Y-148235601D02*
X91700342Y-148283220D01*
X91700342Y-148283220D02*
X91509866Y-148330839D01*
X91509866Y-148330839D02*
X91271771Y-148330839D01*
X91271771Y-148330839D02*
X91081295Y-148283220D01*
X91081295Y-148283220D02*
X90986057Y-148235601D01*
X90986057Y-148235601D02*
X90938438Y-148187982D01*
X90938438Y-148187982D02*
X90890819Y-148092744D01*
X94430819Y-141242493D02*
X93430819Y-141242493D01*
X93430819Y-141242493D02*
X94430819Y-140671065D01*
X94430819Y-140671065D02*
X93430819Y-140671065D01*
X94430819Y-139623446D02*
X93954628Y-139956779D01*
X94430819Y-140194874D02*
X93430819Y-140194874D01*
X93430819Y-140194874D02*
X93430819Y-139813922D01*
X93430819Y-139813922D02*
X93478438Y-139718684D01*
X93478438Y-139718684D02*
X93526057Y-139671065D01*
X93526057Y-139671065D02*
X93621295Y-139623446D01*
X93621295Y-139623446D02*
X93764152Y-139623446D01*
X93764152Y-139623446D02*
X93859390Y-139671065D01*
X93859390Y-139671065D02*
X93907009Y-139718684D01*
X93907009Y-139718684D02*
X93954628Y-139813922D01*
X93954628Y-139813922D02*
X93954628Y-140194874D01*
X94383200Y-139242493D02*
X94430819Y-139099636D01*
X94430819Y-139099636D02*
X94430819Y-138861541D01*
X94430819Y-138861541D02*
X94383200Y-138766303D01*
X94383200Y-138766303D02*
X94335580Y-138718684D01*
X94335580Y-138718684D02*
X94240342Y-138671065D01*
X94240342Y-138671065D02*
X94145104Y-138671065D01*
X94145104Y-138671065D02*
X94049866Y-138718684D01*
X94049866Y-138718684D02*
X94002247Y-138766303D01*
X94002247Y-138766303D02*
X93954628Y-138861541D01*
X93954628Y-138861541D02*
X93907009Y-139052017D01*
X93907009Y-139052017D02*
X93859390Y-139147255D01*
X93859390Y-139147255D02*
X93811771Y-139194874D01*
X93811771Y-139194874D02*
X93716533Y-139242493D01*
X93716533Y-139242493D02*
X93621295Y-139242493D01*
X93621295Y-139242493D02*
X93526057Y-139194874D01*
X93526057Y-139194874D02*
X93478438Y-139147255D01*
X93478438Y-139147255D02*
X93430819Y-139052017D01*
X93430819Y-139052017D02*
X93430819Y-138813922D01*
X93430819Y-138813922D02*
X93478438Y-138671065D01*
X93430819Y-138385350D02*
X93430819Y-137813922D01*
X94430819Y-138099636D02*
X93430819Y-138099636D01*
X94430819Y-149283220D02*
X93430819Y-149283220D01*
X93430819Y-149283220D02*
X94430819Y-148711792D01*
X94430819Y-148711792D02*
X93430819Y-148711792D01*
X94430819Y-147664173D02*
X93954628Y-147997506D01*
X94430819Y-148235601D02*
X93430819Y-148235601D01*
X93430819Y-148235601D02*
X93430819Y-147854649D01*
X93430819Y-147854649D02*
X93478438Y-147759411D01*
X93478438Y-147759411D02*
X93526057Y-147711792D01*
X93526057Y-147711792D02*
X93621295Y-147664173D01*
X93621295Y-147664173D02*
X93764152Y-147664173D01*
X93764152Y-147664173D02*
X93859390Y-147711792D01*
X93859390Y-147711792D02*
X93907009Y-147759411D01*
X93907009Y-147759411D02*
X93954628Y-147854649D01*
X93954628Y-147854649D02*
X93954628Y-148235601D01*
X94383200Y-147283220D02*
X94430819Y-147140363D01*
X94430819Y-147140363D02*
X94430819Y-146902268D01*
X94430819Y-146902268D02*
X94383200Y-146807030D01*
X94383200Y-146807030D02*
X94335580Y-146759411D01*
X94335580Y-146759411D02*
X94240342Y-146711792D01*
X94240342Y-146711792D02*
X94145104Y-146711792D01*
X94145104Y-146711792D02*
X94049866Y-146759411D01*
X94049866Y-146759411D02*
X94002247Y-146807030D01*
X94002247Y-146807030D02*
X93954628Y-146902268D01*
X93954628Y-146902268D02*
X93907009Y-147092744D01*
X93907009Y-147092744D02*
X93859390Y-147187982D01*
X93859390Y-147187982D02*
X93811771Y-147235601D01*
X93811771Y-147235601D02*
X93716533Y-147283220D01*
X93716533Y-147283220D02*
X93621295Y-147283220D01*
X93621295Y-147283220D02*
X93526057Y-147235601D01*
X93526057Y-147235601D02*
X93478438Y-147187982D01*
X93478438Y-147187982D02*
X93430819Y-147092744D01*
X93430819Y-147092744D02*
X93430819Y-146854649D01*
X93430819Y-146854649D02*
X93478438Y-146711792D01*
X93430819Y-146426077D02*
X93430819Y-145854649D01*
X94430819Y-146140363D02*
X93430819Y-146140363D01*
X96589866Y-140528207D02*
X96589866Y-139766303D01*
X96970819Y-140147255D02*
X96208914Y-140147255D01*
X95970819Y-138813922D02*
X95970819Y-139290112D01*
X95970819Y-139290112D02*
X96447009Y-139337731D01*
X96447009Y-139337731D02*
X96399390Y-139290112D01*
X96399390Y-139290112D02*
X96351771Y-139194874D01*
X96351771Y-139194874D02*
X96351771Y-138956779D01*
X96351771Y-138956779D02*
X96399390Y-138861541D01*
X96399390Y-138861541D02*
X96447009Y-138813922D01*
X96447009Y-138813922D02*
X96542247Y-138766303D01*
X96542247Y-138766303D02*
X96780342Y-138766303D01*
X96780342Y-138766303D02*
X96875580Y-138813922D01*
X96875580Y-138813922D02*
X96923200Y-138861541D01*
X96923200Y-138861541D02*
X96970819Y-138956779D01*
X96970819Y-138956779D02*
X96970819Y-139194874D01*
X96970819Y-139194874D02*
X96923200Y-139290112D01*
X96923200Y-139290112D02*
X96875580Y-139337731D01*
X95970819Y-138480588D02*
X96970819Y-138147255D01*
X96970819Y-138147255D02*
X95970819Y-137813922D01*
X96018438Y-148759411D02*
X95970819Y-148854649D01*
X95970819Y-148854649D02*
X95970819Y-148997506D01*
X95970819Y-148997506D02*
X96018438Y-149140363D01*
X96018438Y-149140363D02*
X96113676Y-149235601D01*
X96113676Y-149235601D02*
X96208914Y-149283220D01*
X96208914Y-149283220D02*
X96399390Y-149330839D01*
X96399390Y-149330839D02*
X96542247Y-149330839D01*
X96542247Y-149330839D02*
X96732723Y-149283220D01*
X96732723Y-149283220D02*
X96827961Y-149235601D01*
X96827961Y-149235601D02*
X96923200Y-149140363D01*
X96923200Y-149140363D02*
X96970819Y-148997506D01*
X96970819Y-148997506D02*
X96970819Y-148902268D01*
X96970819Y-148902268D02*
X96923200Y-148759411D01*
X96923200Y-148759411D02*
X96875580Y-148711792D01*
X96875580Y-148711792D02*
X96542247Y-148711792D01*
X96542247Y-148711792D02*
X96542247Y-148902268D01*
X96970819Y-148283220D02*
X95970819Y-148283220D01*
X95970819Y-148283220D02*
X96970819Y-147711792D01*
X96970819Y-147711792D02*
X95970819Y-147711792D01*
X96970819Y-147235601D02*
X95970819Y-147235601D01*
X95970819Y-147235601D02*
X95970819Y-146997506D01*
X95970819Y-146997506D02*
X96018438Y-146854649D01*
X96018438Y-146854649D02*
X96113676Y-146759411D01*
X96113676Y-146759411D02*
X96208914Y-146711792D01*
X96208914Y-146711792D02*
X96399390Y-146664173D01*
X96399390Y-146664173D02*
X96542247Y-146664173D01*
X96542247Y-146664173D02*
X96732723Y-146711792D01*
X96732723Y-146711792D02*
X96827961Y-146759411D01*
X96827961Y-146759411D02*
X96923200Y-146854649D01*
X96923200Y-146854649D02*
X96970819Y-146997506D01*
X96970819Y-146997506D02*
X96970819Y-147235601D01*
X99225104Y-139337731D02*
X99225104Y-138861541D01*
X99510819Y-139432969D02*
X98510819Y-139099636D01*
X98510819Y-139099636D02*
X99510819Y-138766303D01*
X98510819Y-138528207D02*
X98510819Y-137861541D01*
X98510819Y-137861541D02*
X99510819Y-138290112D01*
X99510819Y-149283220D02*
X98510819Y-149283220D01*
X98510819Y-149283220D02*
X98510819Y-149045125D01*
X98510819Y-149045125D02*
X98558438Y-148902268D01*
X98558438Y-148902268D02*
X98653676Y-148807030D01*
X98653676Y-148807030D02*
X98748914Y-148759411D01*
X98748914Y-148759411D02*
X98939390Y-148711792D01*
X98939390Y-148711792D02*
X99082247Y-148711792D01*
X99082247Y-148711792D02*
X99272723Y-148759411D01*
X99272723Y-148759411D02*
X99367961Y-148807030D01*
X99367961Y-148807030D02*
X99463200Y-148902268D01*
X99463200Y-148902268D02*
X99510819Y-149045125D01*
X99510819Y-149045125D02*
X99510819Y-149283220D01*
X98606057Y-148330839D02*
X98558438Y-148283220D01*
X98558438Y-148283220D02*
X98510819Y-148187982D01*
X98510819Y-148187982D02*
X98510819Y-147949887D01*
X98510819Y-147949887D02*
X98558438Y-147854649D01*
X98558438Y-147854649D02*
X98606057Y-147807030D01*
X98606057Y-147807030D02*
X98701295Y-147759411D01*
X98701295Y-147759411D02*
X98796533Y-147759411D01*
X98796533Y-147759411D02*
X98939390Y-147807030D01*
X98939390Y-147807030D02*
X99510819Y-148378458D01*
X99510819Y-148378458D02*
X99510819Y-147759411D01*
X101765104Y-139337731D02*
X101765104Y-138861541D01*
X102050819Y-139432969D02*
X101050819Y-139099636D01*
X101050819Y-139099636D02*
X102050819Y-138766303D01*
X101050819Y-138004398D02*
X101050819Y-138194874D01*
X101050819Y-138194874D02*
X101098438Y-138290112D01*
X101098438Y-138290112D02*
X101146057Y-138337731D01*
X101146057Y-138337731D02*
X101288914Y-138432969D01*
X101288914Y-138432969D02*
X101479390Y-138480588D01*
X101479390Y-138480588D02*
X101860342Y-138480588D01*
X101860342Y-138480588D02*
X101955580Y-138432969D01*
X101955580Y-138432969D02*
X102003200Y-138385350D01*
X102003200Y-138385350D02*
X102050819Y-138290112D01*
X102050819Y-138290112D02*
X102050819Y-138099636D01*
X102050819Y-138099636D02*
X102003200Y-138004398D01*
X102003200Y-138004398D02*
X101955580Y-137956779D01*
X101955580Y-137956779D02*
X101860342Y-137909160D01*
X101860342Y-137909160D02*
X101622247Y-137909160D01*
X101622247Y-137909160D02*
X101527009Y-137956779D01*
X101527009Y-137956779D02*
X101479390Y-138004398D01*
X101479390Y-138004398D02*
X101431771Y-138099636D01*
X101431771Y-138099636D02*
X101431771Y-138290112D01*
X101431771Y-138290112D02*
X101479390Y-138385350D01*
X101479390Y-138385350D02*
X101527009Y-138432969D01*
X101527009Y-138432969D02*
X101622247Y-138480588D01*
X102050819Y-149283220D02*
X101050819Y-149283220D01*
X101050819Y-149283220D02*
X101050819Y-149045125D01*
X101050819Y-149045125D02*
X101098438Y-148902268D01*
X101098438Y-148902268D02*
X101193676Y-148807030D01*
X101193676Y-148807030D02*
X101288914Y-148759411D01*
X101288914Y-148759411D02*
X101479390Y-148711792D01*
X101479390Y-148711792D02*
X101622247Y-148711792D01*
X101622247Y-148711792D02*
X101812723Y-148759411D01*
X101812723Y-148759411D02*
X101907961Y-148807030D01*
X101907961Y-148807030D02*
X102003200Y-148902268D01*
X102003200Y-148902268D02*
X102050819Y-149045125D01*
X102050819Y-149045125D02*
X102050819Y-149283220D01*
X101050819Y-148378458D02*
X101050819Y-147759411D01*
X101050819Y-147759411D02*
X101431771Y-148092744D01*
X101431771Y-148092744D02*
X101431771Y-147949887D01*
X101431771Y-147949887D02*
X101479390Y-147854649D01*
X101479390Y-147854649D02*
X101527009Y-147807030D01*
X101527009Y-147807030D02*
X101622247Y-147759411D01*
X101622247Y-147759411D02*
X101860342Y-147759411D01*
X101860342Y-147759411D02*
X101955580Y-147807030D01*
X101955580Y-147807030D02*
X102003200Y-147854649D01*
X102003200Y-147854649D02*
X102050819Y-147949887D01*
X102050819Y-147949887D02*
X102050819Y-148235601D01*
X102050819Y-148235601D02*
X102003200Y-148330839D01*
X102003200Y-148330839D02*
X101955580Y-148378458D01*
X104305104Y-139337731D02*
X104305104Y-138861541D01*
X104590819Y-139432969D02*
X103590819Y-139099636D01*
X103590819Y-139099636D02*
X104590819Y-138766303D01*
X103590819Y-137956779D02*
X103590819Y-138432969D01*
X103590819Y-138432969D02*
X104067009Y-138480588D01*
X104067009Y-138480588D02*
X104019390Y-138432969D01*
X104019390Y-138432969D02*
X103971771Y-138337731D01*
X103971771Y-138337731D02*
X103971771Y-138099636D01*
X103971771Y-138099636D02*
X104019390Y-138004398D01*
X104019390Y-138004398D02*
X104067009Y-137956779D01*
X104067009Y-137956779D02*
X104162247Y-137909160D01*
X104162247Y-137909160D02*
X104400342Y-137909160D01*
X104400342Y-137909160D02*
X104495580Y-137956779D01*
X104495580Y-137956779D02*
X104543200Y-138004398D01*
X104543200Y-138004398D02*
X104590819Y-138099636D01*
X104590819Y-138099636D02*
X104590819Y-138337731D01*
X104590819Y-138337731D02*
X104543200Y-138432969D01*
X104543200Y-138432969D02*
X104495580Y-138480588D01*
X104590819Y-149283220D02*
X103590819Y-149283220D01*
X103590819Y-149283220D02*
X103590819Y-149045125D01*
X103590819Y-149045125D02*
X103638438Y-148902268D01*
X103638438Y-148902268D02*
X103733676Y-148807030D01*
X103733676Y-148807030D02*
X103828914Y-148759411D01*
X103828914Y-148759411D02*
X104019390Y-148711792D01*
X104019390Y-148711792D02*
X104162247Y-148711792D01*
X104162247Y-148711792D02*
X104352723Y-148759411D01*
X104352723Y-148759411D02*
X104447961Y-148807030D01*
X104447961Y-148807030D02*
X104543200Y-148902268D01*
X104543200Y-148902268D02*
X104590819Y-149045125D01*
X104590819Y-149045125D02*
X104590819Y-149283220D01*
X103924152Y-147854649D02*
X104590819Y-147854649D01*
X103543200Y-148092744D02*
X104257485Y-148330839D01*
X104257485Y-148330839D02*
X104257485Y-147711792D01*
X106845104Y-139337731D02*
X106845104Y-138861541D01*
X107130819Y-139432969D02*
X106130819Y-139099636D01*
X106130819Y-139099636D02*
X107130819Y-138766303D01*
X106464152Y-138004398D02*
X107130819Y-138004398D01*
X106083200Y-138242493D02*
X106797485Y-138480588D01*
X106797485Y-138480588D02*
X106797485Y-137861541D01*
X107130819Y-149283220D02*
X106130819Y-149283220D01*
X106130819Y-149283220D02*
X106130819Y-149045125D01*
X106130819Y-149045125D02*
X106178438Y-148902268D01*
X106178438Y-148902268D02*
X106273676Y-148807030D01*
X106273676Y-148807030D02*
X106368914Y-148759411D01*
X106368914Y-148759411D02*
X106559390Y-148711792D01*
X106559390Y-148711792D02*
X106702247Y-148711792D01*
X106702247Y-148711792D02*
X106892723Y-148759411D01*
X106892723Y-148759411D02*
X106987961Y-148807030D01*
X106987961Y-148807030D02*
X107083200Y-148902268D01*
X107083200Y-148902268D02*
X107130819Y-149045125D01*
X107130819Y-149045125D02*
X107130819Y-149283220D01*
X106130819Y-147807030D02*
X106130819Y-148283220D01*
X106130819Y-148283220D02*
X106607009Y-148330839D01*
X106607009Y-148330839D02*
X106559390Y-148283220D01*
X106559390Y-148283220D02*
X106511771Y-148187982D01*
X106511771Y-148187982D02*
X106511771Y-147949887D01*
X106511771Y-147949887D02*
X106559390Y-147854649D01*
X106559390Y-147854649D02*
X106607009Y-147807030D01*
X106607009Y-147807030D02*
X106702247Y-147759411D01*
X106702247Y-147759411D02*
X106940342Y-147759411D01*
X106940342Y-147759411D02*
X107035580Y-147807030D01*
X107035580Y-147807030D02*
X107083200Y-147854649D01*
X107083200Y-147854649D02*
X107130819Y-147949887D01*
X107130819Y-147949887D02*
X107130819Y-148187982D01*
X107130819Y-148187982D02*
X107083200Y-148283220D01*
X107083200Y-148283220D02*
X107035580Y-148330839D01*
X109385104Y-139337731D02*
X109385104Y-138861541D01*
X109670819Y-139432969D02*
X108670819Y-139099636D01*
X108670819Y-139099636D02*
X109670819Y-138766303D01*
X108670819Y-138528207D02*
X108670819Y-137909160D01*
X108670819Y-137909160D02*
X109051771Y-138242493D01*
X109051771Y-138242493D02*
X109051771Y-138099636D01*
X109051771Y-138099636D02*
X109099390Y-138004398D01*
X109099390Y-138004398D02*
X109147009Y-137956779D01*
X109147009Y-137956779D02*
X109242247Y-137909160D01*
X109242247Y-137909160D02*
X109480342Y-137909160D01*
X109480342Y-137909160D02*
X109575580Y-137956779D01*
X109575580Y-137956779D02*
X109623200Y-138004398D01*
X109623200Y-138004398D02*
X109670819Y-138099636D01*
X109670819Y-138099636D02*
X109670819Y-138385350D01*
X109670819Y-138385350D02*
X109623200Y-138480588D01*
X109623200Y-138480588D02*
X109575580Y-138528207D01*
X109670819Y-149283220D02*
X108670819Y-149283220D01*
X108670819Y-149283220D02*
X108670819Y-149045125D01*
X108670819Y-149045125D02*
X108718438Y-148902268D01*
X108718438Y-148902268D02*
X108813676Y-148807030D01*
X108813676Y-148807030D02*
X108908914Y-148759411D01*
X108908914Y-148759411D02*
X109099390Y-148711792D01*
X109099390Y-148711792D02*
X109242247Y-148711792D01*
X109242247Y-148711792D02*
X109432723Y-148759411D01*
X109432723Y-148759411D02*
X109527961Y-148807030D01*
X109527961Y-148807030D02*
X109623200Y-148902268D01*
X109623200Y-148902268D02*
X109670819Y-149045125D01*
X109670819Y-149045125D02*
X109670819Y-149283220D01*
X108670819Y-147854649D02*
X108670819Y-148045125D01*
X108670819Y-148045125D02*
X108718438Y-148140363D01*
X108718438Y-148140363D02*
X108766057Y-148187982D01*
X108766057Y-148187982D02*
X108908914Y-148283220D01*
X108908914Y-148283220D02*
X109099390Y-148330839D01*
X109099390Y-148330839D02*
X109480342Y-148330839D01*
X109480342Y-148330839D02*
X109575580Y-148283220D01*
X109575580Y-148283220D02*
X109623200Y-148235601D01*
X109623200Y-148235601D02*
X109670819Y-148140363D01*
X109670819Y-148140363D02*
X109670819Y-147949887D01*
X109670819Y-147949887D02*
X109623200Y-147854649D01*
X109623200Y-147854649D02*
X109575580Y-147807030D01*
X109575580Y-147807030D02*
X109480342Y-147759411D01*
X109480342Y-147759411D02*
X109242247Y-147759411D01*
X109242247Y-147759411D02*
X109147009Y-147807030D01*
X109147009Y-147807030D02*
X109099390Y-147854649D01*
X109099390Y-147854649D02*
X109051771Y-147949887D01*
X109051771Y-147949887D02*
X109051771Y-148140363D01*
X109051771Y-148140363D02*
X109099390Y-148235601D01*
X109099390Y-148235601D02*
X109147009Y-148283220D01*
X109147009Y-148283220D02*
X109242247Y-148330839D01*
X111925104Y-139337731D02*
X111925104Y-138861541D01*
X112210819Y-139432969D02*
X111210819Y-139099636D01*
X111210819Y-139099636D02*
X112210819Y-138766303D01*
X111306057Y-138480588D02*
X111258438Y-138432969D01*
X111258438Y-138432969D02*
X111210819Y-138337731D01*
X111210819Y-138337731D02*
X111210819Y-138099636D01*
X111210819Y-138099636D02*
X111258438Y-138004398D01*
X111258438Y-138004398D02*
X111306057Y-137956779D01*
X111306057Y-137956779D02*
X111401295Y-137909160D01*
X111401295Y-137909160D02*
X111496533Y-137909160D01*
X111496533Y-137909160D02*
X111639390Y-137956779D01*
X111639390Y-137956779D02*
X112210819Y-138528207D01*
X112210819Y-138528207D02*
X112210819Y-137909160D01*
X112210819Y-149283220D02*
X111210819Y-149283220D01*
X111210819Y-149283220D02*
X111210819Y-149045125D01*
X111210819Y-149045125D02*
X111258438Y-148902268D01*
X111258438Y-148902268D02*
X111353676Y-148807030D01*
X111353676Y-148807030D02*
X111448914Y-148759411D01*
X111448914Y-148759411D02*
X111639390Y-148711792D01*
X111639390Y-148711792D02*
X111782247Y-148711792D01*
X111782247Y-148711792D02*
X111972723Y-148759411D01*
X111972723Y-148759411D02*
X112067961Y-148807030D01*
X112067961Y-148807030D02*
X112163200Y-148902268D01*
X112163200Y-148902268D02*
X112210819Y-149045125D01*
X112210819Y-149045125D02*
X112210819Y-149283220D01*
X111210819Y-148378458D02*
X111210819Y-147711792D01*
X111210819Y-147711792D02*
X112210819Y-148140363D01*
X114465104Y-139337731D02*
X114465104Y-138861541D01*
X114750819Y-139432969D02*
X113750819Y-139099636D01*
X113750819Y-139099636D02*
X114750819Y-138766303D01*
X114750819Y-137909160D02*
X114750819Y-138480588D01*
X114750819Y-138194874D02*
X113750819Y-138194874D01*
X113750819Y-138194874D02*
X113893676Y-138290112D01*
X113893676Y-138290112D02*
X113988914Y-138385350D01*
X113988914Y-138385350D02*
X114036533Y-138480588D01*
X114750819Y-149283220D02*
X113750819Y-149283220D01*
X113750819Y-149283220D02*
X113750819Y-149045125D01*
X113750819Y-149045125D02*
X113798438Y-148902268D01*
X113798438Y-148902268D02*
X113893676Y-148807030D01*
X113893676Y-148807030D02*
X113988914Y-148759411D01*
X113988914Y-148759411D02*
X114179390Y-148711792D01*
X114179390Y-148711792D02*
X114322247Y-148711792D01*
X114322247Y-148711792D02*
X114512723Y-148759411D01*
X114512723Y-148759411D02*
X114607961Y-148807030D01*
X114607961Y-148807030D02*
X114703200Y-148902268D01*
X114703200Y-148902268D02*
X114750819Y-149045125D01*
X114750819Y-149045125D02*
X114750819Y-149283220D01*
X114179390Y-148140363D02*
X114131771Y-148235601D01*
X114131771Y-148235601D02*
X114084152Y-148283220D01*
X114084152Y-148283220D02*
X113988914Y-148330839D01*
X113988914Y-148330839D02*
X113941295Y-148330839D01*
X113941295Y-148330839D02*
X113846057Y-148283220D01*
X113846057Y-148283220D02*
X113798438Y-148235601D01*
X113798438Y-148235601D02*
X113750819Y-148140363D01*
X113750819Y-148140363D02*
X113750819Y-147949887D01*
X113750819Y-147949887D02*
X113798438Y-147854649D01*
X113798438Y-147854649D02*
X113846057Y-147807030D01*
X113846057Y-147807030D02*
X113941295Y-147759411D01*
X113941295Y-147759411D02*
X113988914Y-147759411D01*
X113988914Y-147759411D02*
X114084152Y-147807030D01*
X114084152Y-147807030D02*
X114131771Y-147854649D01*
X114131771Y-147854649D02*
X114179390Y-147949887D01*
X114179390Y-147949887D02*
X114179390Y-148140363D01*
X114179390Y-148140363D02*
X114227009Y-148235601D01*
X114227009Y-148235601D02*
X114274628Y-148283220D01*
X114274628Y-148283220D02*
X114369866Y-148330839D01*
X114369866Y-148330839D02*
X114560342Y-148330839D01*
X114560342Y-148330839D02*
X114655580Y-148283220D01*
X114655580Y-148283220D02*
X114703200Y-148235601D01*
X114703200Y-148235601D02*
X114750819Y-148140363D01*
X114750819Y-148140363D02*
X114750819Y-147949887D01*
X114750819Y-147949887D02*
X114703200Y-147854649D01*
X114703200Y-147854649D02*
X114655580Y-147807030D01*
X114655580Y-147807030D02*
X114560342Y-147759411D01*
X114560342Y-147759411D02*
X114369866Y-147759411D01*
X114369866Y-147759411D02*
X114274628Y-147807030D01*
X114274628Y-147807030D02*
X114227009Y-147854649D01*
X114227009Y-147854649D02*
X114179390Y-147949887D01*
X117005104Y-139337731D02*
X117005104Y-138861541D01*
X117290819Y-139432969D02*
X116290819Y-139099636D01*
X116290819Y-139099636D02*
X117290819Y-138766303D01*
X116290819Y-138242493D02*
X116290819Y-138147255D01*
X116290819Y-138147255D02*
X116338438Y-138052017D01*
X116338438Y-138052017D02*
X116386057Y-138004398D01*
X116386057Y-138004398D02*
X116481295Y-137956779D01*
X116481295Y-137956779D02*
X116671771Y-137909160D01*
X116671771Y-137909160D02*
X116909866Y-137909160D01*
X116909866Y-137909160D02*
X117100342Y-137956779D01*
X117100342Y-137956779D02*
X117195580Y-138004398D01*
X117195580Y-138004398D02*
X117243200Y-138052017D01*
X117243200Y-138052017D02*
X117290819Y-138147255D01*
X117290819Y-138147255D02*
X117290819Y-138242493D01*
X117290819Y-138242493D02*
X117243200Y-138337731D01*
X117243200Y-138337731D02*
X117195580Y-138385350D01*
X117195580Y-138385350D02*
X117100342Y-138432969D01*
X117100342Y-138432969D02*
X116909866Y-138480588D01*
X116909866Y-138480588D02*
X116671771Y-138480588D01*
X116671771Y-138480588D02*
X116481295Y-138432969D01*
X116481295Y-138432969D02*
X116386057Y-138385350D01*
X116386057Y-138385350D02*
X116338438Y-138337731D01*
X116338438Y-138337731D02*
X116290819Y-138242493D01*
X117290819Y-149283220D02*
X116290819Y-149283220D01*
X116290819Y-149283220D02*
X116290819Y-149045125D01*
X116290819Y-149045125D02*
X116338438Y-148902268D01*
X116338438Y-148902268D02*
X116433676Y-148807030D01*
X116433676Y-148807030D02*
X116528914Y-148759411D01*
X116528914Y-148759411D02*
X116719390Y-148711792D01*
X116719390Y-148711792D02*
X116862247Y-148711792D01*
X116862247Y-148711792D02*
X117052723Y-148759411D01*
X117052723Y-148759411D02*
X117147961Y-148807030D01*
X117147961Y-148807030D02*
X117243200Y-148902268D01*
X117243200Y-148902268D02*
X117290819Y-149045125D01*
X117290819Y-149045125D02*
X117290819Y-149283220D01*
X117290819Y-148235601D02*
X117290819Y-148045125D01*
X117290819Y-148045125D02*
X117243200Y-147949887D01*
X117243200Y-147949887D02*
X117195580Y-147902268D01*
X117195580Y-147902268D02*
X117052723Y-147807030D01*
X117052723Y-147807030D02*
X116862247Y-147759411D01*
X116862247Y-147759411D02*
X116481295Y-147759411D01*
X116481295Y-147759411D02*
X116386057Y-147807030D01*
X116386057Y-147807030D02*
X116338438Y-147854649D01*
X116338438Y-147854649D02*
X116290819Y-147949887D01*
X116290819Y-147949887D02*
X116290819Y-148140363D01*
X116290819Y-148140363D02*
X116338438Y-148235601D01*
X116338438Y-148235601D02*
X116386057Y-148283220D01*
X116386057Y-148283220D02*
X116481295Y-148330839D01*
X116481295Y-148330839D02*
X116719390Y-148330839D01*
X116719390Y-148330839D02*
X116814628Y-148283220D01*
X116814628Y-148283220D02*
X116862247Y-148235601D01*
X116862247Y-148235601D02*
X116909866Y-148140363D01*
X116909866Y-148140363D02*
X116909866Y-147949887D01*
X116909866Y-147949887D02*
X116862247Y-147854649D01*
X116862247Y-147854649D02*
X116814628Y-147807030D01*
X116814628Y-147807030D02*
X116719390Y-147759411D01*
X119545104Y-141147255D02*
X119545104Y-140671065D01*
X119830819Y-141242493D02*
X118830819Y-140909160D01*
X118830819Y-140909160D02*
X119830819Y-140575827D01*
X119830819Y-139671065D02*
X119354628Y-140004398D01*
X119830819Y-140242493D02*
X118830819Y-140242493D01*
X118830819Y-140242493D02*
X118830819Y-139861541D01*
X118830819Y-139861541D02*
X118878438Y-139766303D01*
X118878438Y-139766303D02*
X118926057Y-139718684D01*
X118926057Y-139718684D02*
X119021295Y-139671065D01*
X119021295Y-139671065D02*
X119164152Y-139671065D01*
X119164152Y-139671065D02*
X119259390Y-139718684D01*
X119259390Y-139718684D02*
X119307009Y-139766303D01*
X119307009Y-139766303D02*
X119354628Y-139861541D01*
X119354628Y-139861541D02*
X119354628Y-140242493D01*
X119307009Y-139242493D02*
X119307009Y-138909160D01*
X119830819Y-138766303D02*
X119830819Y-139242493D01*
X119830819Y-139242493D02*
X118830819Y-139242493D01*
X118830819Y-139242493D02*
X118830819Y-138766303D01*
X119307009Y-138004398D02*
X119307009Y-138337731D01*
X119830819Y-138337731D02*
X118830819Y-138337731D01*
X118830819Y-138337731D02*
X118830819Y-137861541D01*
X119830819Y-149283220D02*
X118830819Y-149283220D01*
X118830819Y-149283220D02*
X118830819Y-149045125D01*
X118830819Y-149045125D02*
X118878438Y-148902268D01*
X118878438Y-148902268D02*
X118973676Y-148807030D01*
X118973676Y-148807030D02*
X119068914Y-148759411D01*
X119068914Y-148759411D02*
X119259390Y-148711792D01*
X119259390Y-148711792D02*
X119402247Y-148711792D01*
X119402247Y-148711792D02*
X119592723Y-148759411D01*
X119592723Y-148759411D02*
X119687961Y-148807030D01*
X119687961Y-148807030D02*
X119783200Y-148902268D01*
X119783200Y-148902268D02*
X119830819Y-149045125D01*
X119830819Y-149045125D02*
X119830819Y-149283220D01*
X119830819Y-147759411D02*
X119830819Y-148330839D01*
X119830819Y-148045125D02*
X118830819Y-148045125D01*
X118830819Y-148045125D02*
X118973676Y-148140363D01*
X118973676Y-148140363D02*
X119068914Y-148235601D01*
X119068914Y-148235601D02*
X119116533Y-148330839D01*
X118830819Y-147140363D02*
X118830819Y-147045125D01*
X118830819Y-147045125D02*
X118878438Y-146949887D01*
X118878438Y-146949887D02*
X118926057Y-146902268D01*
X118926057Y-146902268D02*
X119021295Y-146854649D01*
X119021295Y-146854649D02*
X119211771Y-146807030D01*
X119211771Y-146807030D02*
X119449866Y-146807030D01*
X119449866Y-146807030D02*
X119640342Y-146854649D01*
X119640342Y-146854649D02*
X119735580Y-146902268D01*
X119735580Y-146902268D02*
X119783200Y-146949887D01*
X119783200Y-146949887D02*
X119830819Y-147045125D01*
X119830819Y-147045125D02*
X119830819Y-147140363D01*
X119830819Y-147140363D02*
X119783200Y-147235601D01*
X119783200Y-147235601D02*
X119735580Y-147283220D01*
X119735580Y-147283220D02*
X119640342Y-147330839D01*
X119640342Y-147330839D02*
X119449866Y-147378458D01*
X119449866Y-147378458D02*
X119211771Y-147378458D01*
X119211771Y-147378458D02*
X119021295Y-147330839D01*
X119021295Y-147330839D02*
X118926057Y-147283220D01*
X118926057Y-147283220D02*
X118878438Y-147235601D01*
X118878438Y-147235601D02*
X118830819Y-147140363D01*
X121989866Y-141480588D02*
X121989866Y-140718684D01*
X122370819Y-141099636D02*
X121608914Y-141099636D01*
X121370819Y-140337731D02*
X121370819Y-139718684D01*
X121370819Y-139718684D02*
X121751771Y-140052017D01*
X121751771Y-140052017D02*
X121751771Y-139909160D01*
X121751771Y-139909160D02*
X121799390Y-139813922D01*
X121799390Y-139813922D02*
X121847009Y-139766303D01*
X121847009Y-139766303D02*
X121942247Y-139718684D01*
X121942247Y-139718684D02*
X122180342Y-139718684D01*
X122180342Y-139718684D02*
X122275580Y-139766303D01*
X122275580Y-139766303D02*
X122323200Y-139813922D01*
X122323200Y-139813922D02*
X122370819Y-139909160D01*
X122370819Y-139909160D02*
X122370819Y-140194874D01*
X122370819Y-140194874D02*
X122323200Y-140290112D01*
X122323200Y-140290112D02*
X122275580Y-140337731D01*
X121370819Y-139432969D02*
X122370819Y-139099636D01*
X122370819Y-139099636D02*
X121370819Y-138766303D01*
X121370819Y-138528207D02*
X121370819Y-137909160D01*
X121370819Y-137909160D02*
X121751771Y-138242493D01*
X121751771Y-138242493D02*
X121751771Y-138099636D01*
X121751771Y-138099636D02*
X121799390Y-138004398D01*
X121799390Y-138004398D02*
X121847009Y-137956779D01*
X121847009Y-137956779D02*
X121942247Y-137909160D01*
X121942247Y-137909160D02*
X122180342Y-137909160D01*
X122180342Y-137909160D02*
X122275580Y-137956779D01*
X122275580Y-137956779D02*
X122323200Y-138004398D01*
X122323200Y-138004398D02*
X122370819Y-138099636D01*
X122370819Y-138099636D02*
X122370819Y-138385350D01*
X122370819Y-138385350D02*
X122323200Y-138480588D01*
X122323200Y-138480588D02*
X122275580Y-138528207D01*
X122370819Y-149283220D02*
X121370819Y-149283220D01*
X121370819Y-149283220D02*
X121370819Y-149045125D01*
X121370819Y-149045125D02*
X121418438Y-148902268D01*
X121418438Y-148902268D02*
X121513676Y-148807030D01*
X121513676Y-148807030D02*
X121608914Y-148759411D01*
X121608914Y-148759411D02*
X121799390Y-148711792D01*
X121799390Y-148711792D02*
X121942247Y-148711792D01*
X121942247Y-148711792D02*
X122132723Y-148759411D01*
X122132723Y-148759411D02*
X122227961Y-148807030D01*
X122227961Y-148807030D02*
X122323200Y-148902268D01*
X122323200Y-148902268D02*
X122370819Y-149045125D01*
X122370819Y-149045125D02*
X122370819Y-149283220D01*
X122370819Y-147759411D02*
X122370819Y-148330839D01*
X122370819Y-148045125D02*
X121370819Y-148045125D01*
X121370819Y-148045125D02*
X121513676Y-148140363D01*
X121513676Y-148140363D02*
X121608914Y-148235601D01*
X121608914Y-148235601D02*
X121656533Y-148330839D01*
X122370819Y-146807030D02*
X122370819Y-147378458D01*
X122370819Y-147092744D02*
X121370819Y-147092744D01*
X121370819Y-147092744D02*
X121513676Y-147187982D01*
X121513676Y-147187982D02*
X121608914Y-147283220D01*
X121608914Y-147283220D02*
X121656533Y-147378458D01*
X124910819Y-140385350D02*
X123910819Y-140385350D01*
X123910819Y-140385350D02*
X123910819Y-140147255D01*
X123910819Y-140147255D02*
X123958438Y-140004398D01*
X123958438Y-140004398D02*
X124053676Y-139909160D01*
X124053676Y-139909160D02*
X124148914Y-139861541D01*
X124148914Y-139861541D02*
X124339390Y-139813922D01*
X124339390Y-139813922D02*
X124482247Y-139813922D01*
X124482247Y-139813922D02*
X124672723Y-139861541D01*
X124672723Y-139861541D02*
X124767961Y-139909160D01*
X124767961Y-139909160D02*
X124863200Y-140004398D01*
X124863200Y-140004398D02*
X124910819Y-140147255D01*
X124910819Y-140147255D02*
X124910819Y-140385350D01*
X124910819Y-138861541D02*
X124910819Y-139432969D01*
X124910819Y-139147255D02*
X123910819Y-139147255D01*
X123910819Y-139147255D02*
X124053676Y-139242493D01*
X124053676Y-139242493D02*
X124148914Y-139337731D01*
X124148914Y-139337731D02*
X124196533Y-139432969D01*
X123910819Y-138528207D02*
X123910819Y-137909160D01*
X123910819Y-137909160D02*
X124291771Y-138242493D01*
X124291771Y-138242493D02*
X124291771Y-138099636D01*
X124291771Y-138099636D02*
X124339390Y-138004398D01*
X124339390Y-138004398D02*
X124387009Y-137956779D01*
X124387009Y-137956779D02*
X124482247Y-137909160D01*
X124482247Y-137909160D02*
X124720342Y-137909160D01*
X124720342Y-137909160D02*
X124815580Y-137956779D01*
X124815580Y-137956779D02*
X124863200Y-138004398D01*
X124863200Y-138004398D02*
X124910819Y-138099636D01*
X124910819Y-138099636D02*
X124910819Y-138385350D01*
X124910819Y-138385350D02*
X124863200Y-138480588D01*
X124863200Y-138480588D02*
X124815580Y-138528207D01*
X124910819Y-149283220D02*
X123910819Y-149283220D01*
X123910819Y-149283220D02*
X123910819Y-149045125D01*
X123910819Y-149045125D02*
X123958438Y-148902268D01*
X123958438Y-148902268D02*
X124053676Y-148807030D01*
X124053676Y-148807030D02*
X124148914Y-148759411D01*
X124148914Y-148759411D02*
X124339390Y-148711792D01*
X124339390Y-148711792D02*
X124482247Y-148711792D01*
X124482247Y-148711792D02*
X124672723Y-148759411D01*
X124672723Y-148759411D02*
X124767961Y-148807030D01*
X124767961Y-148807030D02*
X124863200Y-148902268D01*
X124863200Y-148902268D02*
X124910819Y-149045125D01*
X124910819Y-149045125D02*
X124910819Y-149283220D01*
X124910819Y-147759411D02*
X124910819Y-148330839D01*
X124910819Y-148045125D02*
X123910819Y-148045125D01*
X123910819Y-148045125D02*
X124053676Y-148140363D01*
X124053676Y-148140363D02*
X124148914Y-148235601D01*
X124148914Y-148235601D02*
X124196533Y-148330839D01*
X124006057Y-147378458D02*
X123958438Y-147330839D01*
X123958438Y-147330839D02*
X123910819Y-147235601D01*
X123910819Y-147235601D02*
X123910819Y-146997506D01*
X123910819Y-146997506D02*
X123958438Y-146902268D01*
X123958438Y-146902268D02*
X124006057Y-146854649D01*
X124006057Y-146854649D02*
X124101295Y-146807030D01*
X124101295Y-146807030D02*
X124196533Y-146807030D01*
X124196533Y-146807030D02*
X124339390Y-146854649D01*
X124339390Y-146854649D02*
X124910819Y-147426077D01*
X124910819Y-147426077D02*
X124910819Y-146807030D01*
X116083333Y-120954819D02*
X115750000Y-120478628D01*
X115511905Y-120954819D02*
X115511905Y-119954819D01*
X115511905Y-119954819D02*
X115892857Y-119954819D01*
X115892857Y-119954819D02*
X115988095Y-120002438D01*
X115988095Y-120002438D02*
X116035714Y-120050057D01*
X116035714Y-120050057D02*
X116083333Y-120145295D01*
X116083333Y-120145295D02*
X116083333Y-120288152D01*
X116083333Y-120288152D02*
X116035714Y-120383390D01*
X116035714Y-120383390D02*
X115988095Y-120431009D01*
X115988095Y-120431009D02*
X115892857Y-120478628D01*
X115892857Y-120478628D02*
X115511905Y-120478628D01*
X116654762Y-120383390D02*
X116559524Y-120335771D01*
X116559524Y-120335771D02*
X116511905Y-120288152D01*
X116511905Y-120288152D02*
X116464286Y-120192914D01*
X116464286Y-120192914D02*
X116464286Y-120145295D01*
X116464286Y-120145295D02*
X116511905Y-120050057D01*
X116511905Y-120050057D02*
X116559524Y-120002438D01*
X116559524Y-120002438D02*
X116654762Y-119954819D01*
X116654762Y-119954819D02*
X116845238Y-119954819D01*
X116845238Y-119954819D02*
X116940476Y-120002438D01*
X116940476Y-120002438D02*
X116988095Y-120050057D01*
X116988095Y-120050057D02*
X117035714Y-120145295D01*
X117035714Y-120145295D02*
X117035714Y-120192914D01*
X117035714Y-120192914D02*
X116988095Y-120288152D01*
X116988095Y-120288152D02*
X116940476Y-120335771D01*
X116940476Y-120335771D02*
X116845238Y-120383390D01*
X116845238Y-120383390D02*
X116654762Y-120383390D01*
X116654762Y-120383390D02*
X116559524Y-120431009D01*
X116559524Y-120431009D02*
X116511905Y-120478628D01*
X116511905Y-120478628D02*
X116464286Y-120573866D01*
X116464286Y-120573866D02*
X116464286Y-120764342D01*
X116464286Y-120764342D02*
X116511905Y-120859580D01*
X116511905Y-120859580D02*
X116559524Y-120907200D01*
X116559524Y-120907200D02*
X116654762Y-120954819D01*
X116654762Y-120954819D02*
X116845238Y-120954819D01*
X116845238Y-120954819D02*
X116940476Y-120907200D01*
X116940476Y-120907200D02*
X116988095Y-120859580D01*
X116988095Y-120859580D02*
X117035714Y-120764342D01*
X117035714Y-120764342D02*
X117035714Y-120573866D01*
X117035714Y-120573866D02*
X116988095Y-120478628D01*
X116988095Y-120478628D02*
X116940476Y-120431009D01*
X116940476Y-120431009D02*
X116845238Y-120383390D01*
X154124819Y-119142857D02*
X153648628Y-119476190D01*
X154124819Y-119714285D02*
X153124819Y-119714285D01*
X153124819Y-119714285D02*
X153124819Y-119333333D01*
X153124819Y-119333333D02*
X153172438Y-119238095D01*
X153172438Y-119238095D02*
X153220057Y-119190476D01*
X153220057Y-119190476D02*
X153315295Y-119142857D01*
X153315295Y-119142857D02*
X153458152Y-119142857D01*
X153458152Y-119142857D02*
X153553390Y-119190476D01*
X153553390Y-119190476D02*
X153601009Y-119238095D01*
X153601009Y-119238095D02*
X153648628Y-119333333D01*
X153648628Y-119333333D02*
X153648628Y-119714285D01*
X154124819Y-118190476D02*
X154124819Y-118761904D01*
X154124819Y-118476190D02*
X153124819Y-118476190D01*
X153124819Y-118476190D02*
X153267676Y-118571428D01*
X153267676Y-118571428D02*
X153362914Y-118666666D01*
X153362914Y-118666666D02*
X153410533Y-118761904D01*
X153220057Y-117809523D02*
X153172438Y-117761904D01*
X153172438Y-117761904D02*
X153124819Y-117666666D01*
X153124819Y-117666666D02*
X153124819Y-117428571D01*
X153124819Y-117428571D02*
X153172438Y-117333333D01*
X153172438Y-117333333D02*
X153220057Y-117285714D01*
X153220057Y-117285714D02*
X153315295Y-117238095D01*
X153315295Y-117238095D02*
X153410533Y-117238095D01*
X153410533Y-117238095D02*
X153553390Y-117285714D01*
X153553390Y-117285714D02*
X154124819Y-117857142D01*
X154124819Y-117857142D02*
X154124819Y-117238095D01*
X85859580Y-109166666D02*
X85907200Y-109214285D01*
X85907200Y-109214285D02*
X85954819Y-109357142D01*
X85954819Y-109357142D02*
X85954819Y-109452380D01*
X85954819Y-109452380D02*
X85907200Y-109595237D01*
X85907200Y-109595237D02*
X85811961Y-109690475D01*
X85811961Y-109690475D02*
X85716723Y-109738094D01*
X85716723Y-109738094D02*
X85526247Y-109785713D01*
X85526247Y-109785713D02*
X85383390Y-109785713D01*
X85383390Y-109785713D02*
X85192914Y-109738094D01*
X85192914Y-109738094D02*
X85097676Y-109690475D01*
X85097676Y-109690475D02*
X85002438Y-109595237D01*
X85002438Y-109595237D02*
X84954819Y-109452380D01*
X84954819Y-109452380D02*
X84954819Y-109357142D01*
X84954819Y-109357142D02*
X85002438Y-109214285D01*
X85002438Y-109214285D02*
X85050057Y-109166666D01*
X85954819Y-108214285D02*
X85954819Y-108785713D01*
X85954819Y-108499999D02*
X84954819Y-108499999D01*
X84954819Y-108499999D02*
X85097676Y-108595237D01*
X85097676Y-108595237D02*
X85192914Y-108690475D01*
X85192914Y-108690475D02*
X85240533Y-108785713D01*
X144174761Y-126250057D02*
X144079523Y-126202438D01*
X144079523Y-126202438D02*
X143984285Y-126107200D01*
X143984285Y-126107200D02*
X143841428Y-125964342D01*
X143841428Y-125964342D02*
X143746190Y-125916723D01*
X143746190Y-125916723D02*
X143650952Y-125916723D01*
X143698571Y-126154819D02*
X143603333Y-126107200D01*
X143603333Y-126107200D02*
X143508095Y-126011961D01*
X143508095Y-126011961D02*
X143460476Y-125821485D01*
X143460476Y-125821485D02*
X143460476Y-125488152D01*
X143460476Y-125488152D02*
X143508095Y-125297676D01*
X143508095Y-125297676D02*
X143603333Y-125202438D01*
X143603333Y-125202438D02*
X143698571Y-125154819D01*
X143698571Y-125154819D02*
X143889047Y-125154819D01*
X143889047Y-125154819D02*
X143984285Y-125202438D01*
X143984285Y-125202438D02*
X144079523Y-125297676D01*
X144079523Y-125297676D02*
X144127142Y-125488152D01*
X144127142Y-125488152D02*
X144127142Y-125821485D01*
X144127142Y-125821485D02*
X144079523Y-126011961D01*
X144079523Y-126011961D02*
X143984285Y-126107200D01*
X143984285Y-126107200D02*
X143889047Y-126154819D01*
X143889047Y-126154819D02*
X143698571Y-126154819D01*
X144508095Y-125250057D02*
X144555714Y-125202438D01*
X144555714Y-125202438D02*
X144650952Y-125154819D01*
X144650952Y-125154819D02*
X144889047Y-125154819D01*
X144889047Y-125154819D02*
X144984285Y-125202438D01*
X144984285Y-125202438D02*
X145031904Y-125250057D01*
X145031904Y-125250057D02*
X145079523Y-125345295D01*
X145079523Y-125345295D02*
X145079523Y-125440533D01*
X145079523Y-125440533D02*
X145031904Y-125583390D01*
X145031904Y-125583390D02*
X144460476Y-126154819D01*
X144460476Y-126154819D02*
X145079523Y-126154819D01*
X109204819Y-97166666D02*
X108728628Y-97499999D01*
X109204819Y-97738094D02*
X108204819Y-97738094D01*
X108204819Y-97738094D02*
X108204819Y-97357142D01*
X108204819Y-97357142D02*
X108252438Y-97261904D01*
X108252438Y-97261904D02*
X108300057Y-97214285D01*
X108300057Y-97214285D02*
X108395295Y-97166666D01*
X108395295Y-97166666D02*
X108538152Y-97166666D01*
X108538152Y-97166666D02*
X108633390Y-97214285D01*
X108633390Y-97214285D02*
X108681009Y-97261904D01*
X108681009Y-97261904D02*
X108728628Y-97357142D01*
X108728628Y-97357142D02*
X108728628Y-97738094D01*
X108204819Y-96833332D02*
X108204819Y-96166666D01*
X108204819Y-96166666D02*
X109204819Y-96595237D01*
X116083333Y-116954819D02*
X115750000Y-116478628D01*
X115511905Y-116954819D02*
X115511905Y-115954819D01*
X115511905Y-115954819D02*
X115892857Y-115954819D01*
X115892857Y-115954819D02*
X115988095Y-116002438D01*
X115988095Y-116002438D02*
X116035714Y-116050057D01*
X116035714Y-116050057D02*
X116083333Y-116145295D01*
X116083333Y-116145295D02*
X116083333Y-116288152D01*
X116083333Y-116288152D02*
X116035714Y-116383390D01*
X116035714Y-116383390D02*
X115988095Y-116431009D01*
X115988095Y-116431009D02*
X115892857Y-116478628D01*
X115892857Y-116478628D02*
X115511905Y-116478628D01*
X116940476Y-115954819D02*
X116750000Y-115954819D01*
X116750000Y-115954819D02*
X116654762Y-116002438D01*
X116654762Y-116002438D02*
X116607143Y-116050057D01*
X116607143Y-116050057D02*
X116511905Y-116192914D01*
X116511905Y-116192914D02*
X116464286Y-116383390D01*
X116464286Y-116383390D02*
X116464286Y-116764342D01*
X116464286Y-116764342D02*
X116511905Y-116859580D01*
X116511905Y-116859580D02*
X116559524Y-116907200D01*
X116559524Y-116907200D02*
X116654762Y-116954819D01*
X116654762Y-116954819D02*
X116845238Y-116954819D01*
X116845238Y-116954819D02*
X116940476Y-116907200D01*
X116940476Y-116907200D02*
X116988095Y-116859580D01*
X116988095Y-116859580D02*
X117035714Y-116764342D01*
X117035714Y-116764342D02*
X117035714Y-116526247D01*
X117035714Y-116526247D02*
X116988095Y-116431009D01*
X116988095Y-116431009D02*
X116940476Y-116383390D01*
X116940476Y-116383390D02*
X116845238Y-116335771D01*
X116845238Y-116335771D02*
X116654762Y-116335771D01*
X116654762Y-116335771D02*
X116559524Y-116383390D01*
X116559524Y-116383390D02*
X116511905Y-116431009D01*
X116511905Y-116431009D02*
X116464286Y-116526247D01*
X116083333Y-128704819D02*
X115750000Y-128228628D01*
X115511905Y-128704819D02*
X115511905Y-127704819D01*
X115511905Y-127704819D02*
X115892857Y-127704819D01*
X115892857Y-127704819D02*
X115988095Y-127752438D01*
X115988095Y-127752438D02*
X116035714Y-127800057D01*
X116035714Y-127800057D02*
X116083333Y-127895295D01*
X116083333Y-127895295D02*
X116083333Y-128038152D01*
X116083333Y-128038152D02*
X116035714Y-128133390D01*
X116035714Y-128133390D02*
X115988095Y-128181009D01*
X115988095Y-128181009D02*
X115892857Y-128228628D01*
X115892857Y-128228628D02*
X115511905Y-128228628D01*
X116940476Y-128038152D02*
X116940476Y-128704819D01*
X116702381Y-127657200D02*
X116464286Y-128371485D01*
X116464286Y-128371485D02*
X117083333Y-128371485D01*
X140074819Y-119142857D02*
X139598628Y-119476190D01*
X140074819Y-119714285D02*
X139074819Y-119714285D01*
X139074819Y-119714285D02*
X139074819Y-119333333D01*
X139074819Y-119333333D02*
X139122438Y-119238095D01*
X139122438Y-119238095D02*
X139170057Y-119190476D01*
X139170057Y-119190476D02*
X139265295Y-119142857D01*
X139265295Y-119142857D02*
X139408152Y-119142857D01*
X139408152Y-119142857D02*
X139503390Y-119190476D01*
X139503390Y-119190476D02*
X139551009Y-119238095D01*
X139551009Y-119238095D02*
X139598628Y-119333333D01*
X139598628Y-119333333D02*
X139598628Y-119714285D01*
X140074819Y-118190476D02*
X140074819Y-118761904D01*
X140074819Y-118476190D02*
X139074819Y-118476190D01*
X139074819Y-118476190D02*
X139217676Y-118571428D01*
X139217676Y-118571428D02*
X139312914Y-118666666D01*
X139312914Y-118666666D02*
X139360533Y-118761904D01*
X139074819Y-117571428D02*
X139074819Y-117476190D01*
X139074819Y-117476190D02*
X139122438Y-117380952D01*
X139122438Y-117380952D02*
X139170057Y-117333333D01*
X139170057Y-117333333D02*
X139265295Y-117285714D01*
X139265295Y-117285714D02*
X139455771Y-117238095D01*
X139455771Y-117238095D02*
X139693866Y-117238095D01*
X139693866Y-117238095D02*
X139884342Y-117285714D01*
X139884342Y-117285714D02*
X139979580Y-117333333D01*
X139979580Y-117333333D02*
X140027200Y-117380952D01*
X140027200Y-117380952D02*
X140074819Y-117476190D01*
X140074819Y-117476190D02*
X140074819Y-117571428D01*
X140074819Y-117571428D02*
X140027200Y-117666666D01*
X140027200Y-117666666D02*
X139979580Y-117714285D01*
X139979580Y-117714285D02*
X139884342Y-117761904D01*
X139884342Y-117761904D02*
X139693866Y-117809523D01*
X139693866Y-117809523D02*
X139455771Y-117809523D01*
X139455771Y-117809523D02*
X139265295Y-117761904D01*
X139265295Y-117761904D02*
X139170057Y-117714285D01*
X139170057Y-117714285D02*
X139122438Y-117666666D01*
X139122438Y-117666666D02*
X139074819Y-117571428D01*
X99954819Y-97166666D02*
X99478628Y-97499999D01*
X99954819Y-97738094D02*
X98954819Y-97738094D01*
X98954819Y-97738094D02*
X98954819Y-97357142D01*
X98954819Y-97357142D02*
X99002438Y-97261904D01*
X99002438Y-97261904D02*
X99050057Y-97214285D01*
X99050057Y-97214285D02*
X99145295Y-97166666D01*
X99145295Y-97166666D02*
X99288152Y-97166666D01*
X99288152Y-97166666D02*
X99383390Y-97214285D01*
X99383390Y-97214285D02*
X99431009Y-97261904D01*
X99431009Y-97261904D02*
X99478628Y-97357142D01*
X99478628Y-97357142D02*
X99478628Y-97738094D01*
X99050057Y-96785713D02*
X99002438Y-96738094D01*
X99002438Y-96738094D02*
X98954819Y-96642856D01*
X98954819Y-96642856D02*
X98954819Y-96404761D01*
X98954819Y-96404761D02*
X99002438Y-96309523D01*
X99002438Y-96309523D02*
X99050057Y-96261904D01*
X99050057Y-96261904D02*
X99145295Y-96214285D01*
X99145295Y-96214285D02*
X99240533Y-96214285D01*
X99240533Y-96214285D02*
X99383390Y-96261904D01*
X99383390Y-96261904D02*
X99954819Y-96833332D01*
X99954819Y-96833332D02*
X99954819Y-96214285D01*
X152980200Y-144122207D02*
X153027819Y-143979350D01*
X153027819Y-143979350D02*
X153027819Y-143741255D01*
X153027819Y-143741255D02*
X152980200Y-143646017D01*
X152980200Y-143646017D02*
X152932580Y-143598398D01*
X152932580Y-143598398D02*
X152837342Y-143550779D01*
X152837342Y-143550779D02*
X152742104Y-143550779D01*
X152742104Y-143550779D02*
X152646866Y-143598398D01*
X152646866Y-143598398D02*
X152599247Y-143646017D01*
X152599247Y-143646017D02*
X152551628Y-143741255D01*
X152551628Y-143741255D02*
X152504009Y-143931731D01*
X152504009Y-143931731D02*
X152456390Y-144026969D01*
X152456390Y-144026969D02*
X152408771Y-144074588D01*
X152408771Y-144074588D02*
X152313533Y-144122207D01*
X152313533Y-144122207D02*
X152218295Y-144122207D01*
X152218295Y-144122207D02*
X152123057Y-144074588D01*
X152123057Y-144074588D02*
X152075438Y-144026969D01*
X152075438Y-144026969D02*
X152027819Y-143931731D01*
X152027819Y-143931731D02*
X152027819Y-143693636D01*
X152027819Y-143693636D02*
X152075438Y-143550779D01*
X153027819Y-143122207D02*
X152027819Y-143122207D01*
X152027819Y-143122207D02*
X152027819Y-142884112D01*
X152027819Y-142884112D02*
X152075438Y-142741255D01*
X152075438Y-142741255D02*
X152170676Y-142646017D01*
X152170676Y-142646017D02*
X152265914Y-142598398D01*
X152265914Y-142598398D02*
X152456390Y-142550779D01*
X152456390Y-142550779D02*
X152599247Y-142550779D01*
X152599247Y-142550779D02*
X152789723Y-142598398D01*
X152789723Y-142598398D02*
X152884961Y-142646017D01*
X152884961Y-142646017D02*
X152980200Y-142741255D01*
X152980200Y-142741255D02*
X153027819Y-142884112D01*
X153027819Y-142884112D02*
X153027819Y-143122207D01*
X152027819Y-141931731D02*
X152027819Y-141741255D01*
X152027819Y-141741255D02*
X152075438Y-141646017D01*
X152075438Y-141646017D02*
X152170676Y-141550779D01*
X152170676Y-141550779D02*
X152361152Y-141503160D01*
X152361152Y-141503160D02*
X152694485Y-141503160D01*
X152694485Y-141503160D02*
X152884961Y-141550779D01*
X152884961Y-141550779D02*
X152980200Y-141646017D01*
X152980200Y-141646017D02*
X153027819Y-141741255D01*
X153027819Y-141741255D02*
X153027819Y-141931731D01*
X153027819Y-141931731D02*
X152980200Y-142026969D01*
X152980200Y-142026969D02*
X152884961Y-142122207D01*
X152884961Y-142122207D02*
X152694485Y-142169826D01*
X152694485Y-142169826D02*
X152361152Y-142169826D01*
X152361152Y-142169826D02*
X152170676Y-142122207D01*
X152170676Y-142122207D02*
X152075438Y-142026969D01*
X152075438Y-142026969D02*
X152027819Y-141931731D01*
X155472580Y-143455541D02*
X155520200Y-143503160D01*
X155520200Y-143503160D02*
X155567819Y-143646017D01*
X155567819Y-143646017D02*
X155567819Y-143741255D01*
X155567819Y-143741255D02*
X155520200Y-143884112D01*
X155520200Y-143884112D02*
X155424961Y-143979350D01*
X155424961Y-143979350D02*
X155329723Y-144026969D01*
X155329723Y-144026969D02*
X155139247Y-144074588D01*
X155139247Y-144074588D02*
X154996390Y-144074588D01*
X154996390Y-144074588D02*
X154805914Y-144026969D01*
X154805914Y-144026969D02*
X154710676Y-143979350D01*
X154710676Y-143979350D02*
X154615438Y-143884112D01*
X154615438Y-143884112D02*
X154567819Y-143741255D01*
X154567819Y-143741255D02*
X154567819Y-143646017D01*
X154567819Y-143646017D02*
X154615438Y-143503160D01*
X154615438Y-143503160D02*
X154663057Y-143455541D01*
X155520200Y-143074588D02*
X155567819Y-142931731D01*
X155567819Y-142931731D02*
X155567819Y-142693636D01*
X155567819Y-142693636D02*
X155520200Y-142598398D01*
X155520200Y-142598398D02*
X155472580Y-142550779D01*
X155472580Y-142550779D02*
X155377342Y-142503160D01*
X155377342Y-142503160D02*
X155282104Y-142503160D01*
X155282104Y-142503160D02*
X155186866Y-142550779D01*
X155186866Y-142550779D02*
X155139247Y-142598398D01*
X155139247Y-142598398D02*
X155091628Y-142693636D01*
X155091628Y-142693636D02*
X155044009Y-142884112D01*
X155044009Y-142884112D02*
X154996390Y-142979350D01*
X154996390Y-142979350D02*
X154948771Y-143026969D01*
X154948771Y-143026969D02*
X154853533Y-143074588D01*
X154853533Y-143074588D02*
X154758295Y-143074588D01*
X154758295Y-143074588D02*
X154663057Y-143026969D01*
X154663057Y-143026969D02*
X154615438Y-142979350D01*
X154615438Y-142979350D02*
X154567819Y-142884112D01*
X154567819Y-142884112D02*
X154567819Y-142646017D01*
X154567819Y-142646017D02*
X154615438Y-142503160D01*
X155044009Y-141741255D02*
X155091628Y-141598398D01*
X155091628Y-141598398D02*
X155139247Y-141550779D01*
X155139247Y-141550779D02*
X155234485Y-141503160D01*
X155234485Y-141503160D02*
X155377342Y-141503160D01*
X155377342Y-141503160D02*
X155472580Y-141550779D01*
X155472580Y-141550779D02*
X155520200Y-141598398D01*
X155520200Y-141598398D02*
X155567819Y-141693636D01*
X155567819Y-141693636D02*
X155567819Y-142074588D01*
X155567819Y-142074588D02*
X154567819Y-142074588D01*
X154567819Y-142074588D02*
X154567819Y-141741255D01*
X154567819Y-141741255D02*
X154615438Y-141646017D01*
X154615438Y-141646017D02*
X154663057Y-141598398D01*
X154663057Y-141598398D02*
X154758295Y-141550779D01*
X154758295Y-141550779D02*
X154853533Y-141550779D01*
X154853533Y-141550779D02*
X154948771Y-141598398D01*
X154948771Y-141598398D02*
X154996390Y-141646017D01*
X154996390Y-141646017D02*
X155044009Y-141741255D01*
X155044009Y-141741255D02*
X155044009Y-142074588D01*
X158060200Y-143931731D02*
X158107819Y-143788874D01*
X158107819Y-143788874D02*
X158107819Y-143550779D01*
X158107819Y-143550779D02*
X158060200Y-143455541D01*
X158060200Y-143455541D02*
X158012580Y-143407922D01*
X158012580Y-143407922D02*
X157917342Y-143360303D01*
X157917342Y-143360303D02*
X157822104Y-143360303D01*
X157822104Y-143360303D02*
X157726866Y-143407922D01*
X157726866Y-143407922D02*
X157679247Y-143455541D01*
X157679247Y-143455541D02*
X157631628Y-143550779D01*
X157631628Y-143550779D02*
X157584009Y-143741255D01*
X157584009Y-143741255D02*
X157536390Y-143836493D01*
X157536390Y-143836493D02*
X157488771Y-143884112D01*
X157488771Y-143884112D02*
X157393533Y-143931731D01*
X157393533Y-143931731D02*
X157298295Y-143931731D01*
X157298295Y-143931731D02*
X157203057Y-143884112D01*
X157203057Y-143884112D02*
X157155438Y-143836493D01*
X157155438Y-143836493D02*
X157107819Y-143741255D01*
X157107819Y-143741255D02*
X157107819Y-143503160D01*
X157107819Y-143503160D02*
X157155438Y-143360303D01*
X158107819Y-142931731D02*
X157107819Y-142931731D01*
X157107819Y-142931731D02*
X157107819Y-142693636D01*
X157107819Y-142693636D02*
X157155438Y-142550779D01*
X157155438Y-142550779D02*
X157250676Y-142455541D01*
X157250676Y-142455541D02*
X157345914Y-142407922D01*
X157345914Y-142407922D02*
X157536390Y-142360303D01*
X157536390Y-142360303D02*
X157679247Y-142360303D01*
X157679247Y-142360303D02*
X157869723Y-142407922D01*
X157869723Y-142407922D02*
X157964961Y-142455541D01*
X157964961Y-142455541D02*
X158060200Y-142550779D01*
X158060200Y-142550779D02*
X158107819Y-142693636D01*
X158107819Y-142693636D02*
X158107819Y-142931731D01*
X157822104Y-141979350D02*
X157822104Y-141503160D01*
X158107819Y-142074588D02*
X157107819Y-141741255D01*
X157107819Y-141741255D02*
X158107819Y-141407922D01*
X153380952Y-147926009D02*
X153523809Y-147973628D01*
X153523809Y-147973628D02*
X153571428Y-148021247D01*
X153571428Y-148021247D02*
X153619047Y-148116485D01*
X153619047Y-148116485D02*
X153619047Y-148259342D01*
X153619047Y-148259342D02*
X153571428Y-148354580D01*
X153571428Y-148354580D02*
X153523809Y-148402200D01*
X153523809Y-148402200D02*
X153428571Y-148449819D01*
X153428571Y-148449819D02*
X153047619Y-148449819D01*
X153047619Y-148449819D02*
X153047619Y-147449819D01*
X153047619Y-147449819D02*
X153380952Y-147449819D01*
X153380952Y-147449819D02*
X153476190Y-147497438D01*
X153476190Y-147497438D02*
X153523809Y-147545057D01*
X153523809Y-147545057D02*
X153571428Y-147640295D01*
X153571428Y-147640295D02*
X153571428Y-147735533D01*
X153571428Y-147735533D02*
X153523809Y-147830771D01*
X153523809Y-147830771D02*
X153476190Y-147878390D01*
X153476190Y-147878390D02*
X153380952Y-147926009D01*
X153380952Y-147926009D02*
X153047619Y-147926009D01*
X154047619Y-148449819D02*
X154047619Y-147449819D01*
X154047619Y-147449819D02*
X154380952Y-148164104D01*
X154380952Y-148164104D02*
X154714285Y-147449819D01*
X154714285Y-147449819D02*
X154714285Y-148449819D01*
X155190476Y-147926009D02*
X155523809Y-147926009D01*
X155666666Y-148449819D02*
X155190476Y-148449819D01*
X155190476Y-148449819D02*
X155190476Y-147449819D01*
X155190476Y-147449819D02*
X155666666Y-147449819D01*
X156047619Y-147545057D02*
X156095238Y-147497438D01*
X156095238Y-147497438D02*
X156190476Y-147449819D01*
X156190476Y-147449819D02*
X156428571Y-147449819D01*
X156428571Y-147449819D02*
X156523809Y-147497438D01*
X156523809Y-147497438D02*
X156571428Y-147545057D01*
X156571428Y-147545057D02*
X156619047Y-147640295D01*
X156619047Y-147640295D02*
X156619047Y-147735533D01*
X156619047Y-147735533D02*
X156571428Y-147878390D01*
X156571428Y-147878390D02*
X156000000Y-148449819D01*
X156000000Y-148449819D02*
X156619047Y-148449819D01*
X157190476Y-147878390D02*
X157095238Y-147830771D01*
X157095238Y-147830771D02*
X157047619Y-147783152D01*
X157047619Y-147783152D02*
X157000000Y-147687914D01*
X157000000Y-147687914D02*
X157000000Y-147640295D01*
X157000000Y-147640295D02*
X157047619Y-147545057D01*
X157047619Y-147545057D02*
X157095238Y-147497438D01*
X157095238Y-147497438D02*
X157190476Y-147449819D01*
X157190476Y-147449819D02*
X157380952Y-147449819D01*
X157380952Y-147449819D02*
X157476190Y-147497438D01*
X157476190Y-147497438D02*
X157523809Y-147545057D01*
X157523809Y-147545057D02*
X157571428Y-147640295D01*
X157571428Y-147640295D02*
X157571428Y-147687914D01*
X157571428Y-147687914D02*
X157523809Y-147783152D01*
X157523809Y-147783152D02*
X157476190Y-147830771D01*
X157476190Y-147830771D02*
X157380952Y-147878390D01*
X157380952Y-147878390D02*
X157190476Y-147878390D01*
X157190476Y-147878390D02*
X157095238Y-147926009D01*
X157095238Y-147926009D02*
X157047619Y-147973628D01*
X157047619Y-147973628D02*
X157000000Y-148068866D01*
X157000000Y-148068866D02*
X157000000Y-148259342D01*
X157000000Y-148259342D02*
X157047619Y-148354580D01*
X157047619Y-148354580D02*
X157095238Y-148402200D01*
X157095238Y-148402200D02*
X157190476Y-148449819D01*
X157190476Y-148449819D02*
X157380952Y-148449819D01*
X157380952Y-148449819D02*
X157476190Y-148402200D01*
X157476190Y-148402200D02*
X157523809Y-148354580D01*
X157523809Y-148354580D02*
X157571428Y-148259342D01*
X157571428Y-148259342D02*
X157571428Y-148068866D01*
X157571428Y-148068866D02*
X157523809Y-147973628D01*
X157523809Y-147973628D02*
X157476190Y-147926009D01*
X157476190Y-147926009D02*
X157380952Y-147878390D01*
X158190476Y-147449819D02*
X158285714Y-147449819D01*
X158285714Y-147449819D02*
X158380952Y-147497438D01*
X158380952Y-147497438D02*
X158428571Y-147545057D01*
X158428571Y-147545057D02*
X158476190Y-147640295D01*
X158476190Y-147640295D02*
X158523809Y-147830771D01*
X158523809Y-147830771D02*
X158523809Y-148068866D01*
X158523809Y-148068866D02*
X158476190Y-148259342D01*
X158476190Y-148259342D02*
X158428571Y-148354580D01*
X158428571Y-148354580D02*
X158380952Y-148402200D01*
X158380952Y-148402200D02*
X158285714Y-148449819D01*
X158285714Y-148449819D02*
X158190476Y-148449819D01*
X158190476Y-148449819D02*
X158095238Y-148402200D01*
X158095238Y-148402200D02*
X158047619Y-148354580D01*
X158047619Y-148354580D02*
X158000000Y-148259342D01*
X158000000Y-148259342D02*
X157952381Y-148068866D01*
X157952381Y-148068866D02*
X157952381Y-147830771D01*
X157952381Y-147830771D02*
X158000000Y-147640295D01*
X158000000Y-147640295D02*
X158047619Y-147545057D01*
X158047619Y-147545057D02*
X158095238Y-147497438D01*
X158095238Y-147497438D02*
X158190476Y-147449819D01*
X158952381Y-148068866D02*
X159714286Y-148068866D01*
X160190476Y-148449819D02*
X160190476Y-147449819D01*
X160190476Y-147449819D02*
X160523809Y-148164104D01*
X160523809Y-148164104D02*
X160857142Y-147449819D01*
X160857142Y-147449819D02*
X160857142Y-148449819D01*
X161476190Y-148449819D02*
X161380952Y-148402200D01*
X161380952Y-148402200D02*
X161333333Y-148354580D01*
X161333333Y-148354580D02*
X161285714Y-148259342D01*
X161285714Y-148259342D02*
X161285714Y-147973628D01*
X161285714Y-147973628D02*
X161333333Y-147878390D01*
X161333333Y-147878390D02*
X161380952Y-147830771D01*
X161380952Y-147830771D02*
X161476190Y-147783152D01*
X161476190Y-147783152D02*
X161619047Y-147783152D01*
X161619047Y-147783152D02*
X161714285Y-147830771D01*
X161714285Y-147830771D02*
X161761904Y-147878390D01*
X161761904Y-147878390D02*
X161809523Y-147973628D01*
X161809523Y-147973628D02*
X161809523Y-148259342D01*
X161809523Y-148259342D02*
X161761904Y-148354580D01*
X161761904Y-148354580D02*
X161714285Y-148402200D01*
X161714285Y-148402200D02*
X161619047Y-148449819D01*
X161619047Y-148449819D02*
X161476190Y-148449819D01*
X162666666Y-148449819D02*
X162666666Y-147449819D01*
X162666666Y-148402200D02*
X162571428Y-148449819D01*
X162571428Y-148449819D02*
X162380952Y-148449819D01*
X162380952Y-148449819D02*
X162285714Y-148402200D01*
X162285714Y-148402200D02*
X162238095Y-148354580D01*
X162238095Y-148354580D02*
X162190476Y-148259342D01*
X162190476Y-148259342D02*
X162190476Y-147973628D01*
X162190476Y-147973628D02*
X162238095Y-147878390D01*
X162238095Y-147878390D02*
X162285714Y-147830771D01*
X162285714Y-147830771D02*
X162380952Y-147783152D01*
X162380952Y-147783152D02*
X162571428Y-147783152D01*
X162571428Y-147783152D02*
X162666666Y-147830771D01*
X163571428Y-147783152D02*
X163571428Y-148449819D01*
X163142857Y-147783152D02*
X163142857Y-148306961D01*
X163142857Y-148306961D02*
X163190476Y-148402200D01*
X163190476Y-148402200D02*
X163285714Y-148449819D01*
X163285714Y-148449819D02*
X163428571Y-148449819D01*
X163428571Y-148449819D02*
X163523809Y-148402200D01*
X163523809Y-148402200D02*
X163571428Y-148354580D01*
X164190476Y-148449819D02*
X164095238Y-148402200D01*
X164095238Y-148402200D02*
X164047619Y-148306961D01*
X164047619Y-148306961D02*
X164047619Y-147449819D01*
X164952381Y-148402200D02*
X164857143Y-148449819D01*
X164857143Y-148449819D02*
X164666667Y-148449819D01*
X164666667Y-148449819D02*
X164571429Y-148402200D01*
X164571429Y-148402200D02*
X164523810Y-148306961D01*
X164523810Y-148306961D02*
X164523810Y-147926009D01*
X164523810Y-147926009D02*
X164571429Y-147830771D01*
X164571429Y-147830771D02*
X164666667Y-147783152D01*
X164666667Y-147783152D02*
X164857143Y-147783152D01*
X164857143Y-147783152D02*
X164952381Y-147830771D01*
X164952381Y-147830771D02*
X165000000Y-147926009D01*
X165000000Y-147926009D02*
X165000000Y-148021247D01*
X165000000Y-148021247D02*
X164523810Y-148116485D01*
X160600200Y-143884112D02*
X160647819Y-143741255D01*
X160647819Y-143741255D02*
X160647819Y-143503160D01*
X160647819Y-143503160D02*
X160600200Y-143407922D01*
X160600200Y-143407922D02*
X160552580Y-143360303D01*
X160552580Y-143360303D02*
X160457342Y-143312684D01*
X160457342Y-143312684D02*
X160362104Y-143312684D01*
X160362104Y-143312684D02*
X160266866Y-143360303D01*
X160266866Y-143360303D02*
X160219247Y-143407922D01*
X160219247Y-143407922D02*
X160171628Y-143503160D01*
X160171628Y-143503160D02*
X160124009Y-143693636D01*
X160124009Y-143693636D02*
X160076390Y-143788874D01*
X160076390Y-143788874D02*
X160028771Y-143836493D01*
X160028771Y-143836493D02*
X159933533Y-143884112D01*
X159933533Y-143884112D02*
X159838295Y-143884112D01*
X159838295Y-143884112D02*
X159743057Y-143836493D01*
X159743057Y-143836493D02*
X159695438Y-143788874D01*
X159695438Y-143788874D02*
X159647819Y-143693636D01*
X159647819Y-143693636D02*
X159647819Y-143455541D01*
X159647819Y-143455541D02*
X159695438Y-143312684D01*
X160552580Y-142312684D02*
X160600200Y-142360303D01*
X160600200Y-142360303D02*
X160647819Y-142503160D01*
X160647819Y-142503160D02*
X160647819Y-142598398D01*
X160647819Y-142598398D02*
X160600200Y-142741255D01*
X160600200Y-142741255D02*
X160504961Y-142836493D01*
X160504961Y-142836493D02*
X160409723Y-142884112D01*
X160409723Y-142884112D02*
X160219247Y-142931731D01*
X160219247Y-142931731D02*
X160076390Y-142931731D01*
X160076390Y-142931731D02*
X159885914Y-142884112D01*
X159885914Y-142884112D02*
X159790676Y-142836493D01*
X159790676Y-142836493D02*
X159695438Y-142741255D01*
X159695438Y-142741255D02*
X159647819Y-142598398D01*
X159647819Y-142598398D02*
X159647819Y-142503160D01*
X159647819Y-142503160D02*
X159695438Y-142360303D01*
X159695438Y-142360303D02*
X159743057Y-142312684D01*
X160647819Y-141407922D02*
X160647819Y-141884112D01*
X160647819Y-141884112D02*
X159647819Y-141884112D01*
X162235438Y-143598398D02*
X162187819Y-143693636D01*
X162187819Y-143693636D02*
X162187819Y-143836493D01*
X162187819Y-143836493D02*
X162235438Y-143979350D01*
X162235438Y-143979350D02*
X162330676Y-144074588D01*
X162330676Y-144074588D02*
X162425914Y-144122207D01*
X162425914Y-144122207D02*
X162616390Y-144169826D01*
X162616390Y-144169826D02*
X162759247Y-144169826D01*
X162759247Y-144169826D02*
X162949723Y-144122207D01*
X162949723Y-144122207D02*
X163044961Y-144074588D01*
X163044961Y-144074588D02*
X163140200Y-143979350D01*
X163140200Y-143979350D02*
X163187819Y-143836493D01*
X163187819Y-143836493D02*
X163187819Y-143741255D01*
X163187819Y-143741255D02*
X163140200Y-143598398D01*
X163140200Y-143598398D02*
X163092580Y-143550779D01*
X163092580Y-143550779D02*
X162759247Y-143550779D01*
X162759247Y-143550779D02*
X162759247Y-143741255D01*
X163187819Y-143122207D02*
X162187819Y-143122207D01*
X162187819Y-143122207D02*
X163187819Y-142550779D01*
X163187819Y-142550779D02*
X162187819Y-142550779D01*
X163187819Y-142074588D02*
X162187819Y-142074588D01*
X162187819Y-142074588D02*
X162187819Y-141836493D01*
X162187819Y-141836493D02*
X162235438Y-141693636D01*
X162235438Y-141693636D02*
X162330676Y-141598398D01*
X162330676Y-141598398D02*
X162425914Y-141550779D01*
X162425914Y-141550779D02*
X162616390Y-141503160D01*
X162616390Y-141503160D02*
X162759247Y-141503160D01*
X162759247Y-141503160D02*
X162949723Y-141550779D01*
X162949723Y-141550779D02*
X163044961Y-141598398D01*
X163044961Y-141598398D02*
X163140200Y-141693636D01*
X163140200Y-141693636D02*
X163187819Y-141836493D01*
X163187819Y-141836493D02*
X163187819Y-142074588D01*
X164727819Y-144074588D02*
X165727819Y-143741255D01*
X165727819Y-143741255D02*
X164727819Y-143407922D01*
X165632580Y-142503160D02*
X165680200Y-142550779D01*
X165680200Y-142550779D02*
X165727819Y-142693636D01*
X165727819Y-142693636D02*
X165727819Y-142788874D01*
X165727819Y-142788874D02*
X165680200Y-142931731D01*
X165680200Y-142931731D02*
X165584961Y-143026969D01*
X165584961Y-143026969D02*
X165489723Y-143074588D01*
X165489723Y-143074588D02*
X165299247Y-143122207D01*
X165299247Y-143122207D02*
X165156390Y-143122207D01*
X165156390Y-143122207D02*
X164965914Y-143074588D01*
X164965914Y-143074588D02*
X164870676Y-143026969D01*
X164870676Y-143026969D02*
X164775438Y-142931731D01*
X164775438Y-142931731D02*
X164727819Y-142788874D01*
X164727819Y-142788874D02*
X164727819Y-142693636D01*
X164727819Y-142693636D02*
X164775438Y-142550779D01*
X164775438Y-142550779D02*
X164823057Y-142503160D01*
X165632580Y-141503160D02*
X165680200Y-141550779D01*
X165680200Y-141550779D02*
X165727819Y-141693636D01*
X165727819Y-141693636D02*
X165727819Y-141788874D01*
X165727819Y-141788874D02*
X165680200Y-141931731D01*
X165680200Y-141931731D02*
X165584961Y-142026969D01*
X165584961Y-142026969D02*
X165489723Y-142074588D01*
X165489723Y-142074588D02*
X165299247Y-142122207D01*
X165299247Y-142122207D02*
X165156390Y-142122207D01*
X165156390Y-142122207D02*
X164965914Y-142074588D01*
X164965914Y-142074588D02*
X164870676Y-142026969D01*
X164870676Y-142026969D02*
X164775438Y-141931731D01*
X164775438Y-141931731D02*
X164727819Y-141788874D01*
X164727819Y-141788874D02*
X164727819Y-141693636D01*
X164727819Y-141693636D02*
X164775438Y-141550779D01*
X164775438Y-141550779D02*
X164823057Y-141503160D01*
X116083333Y-112954819D02*
X115750000Y-112478628D01*
X115511905Y-112954819D02*
X115511905Y-111954819D01*
X115511905Y-111954819D02*
X115892857Y-111954819D01*
X115892857Y-111954819D02*
X115988095Y-112002438D01*
X115988095Y-112002438D02*
X116035714Y-112050057D01*
X116035714Y-112050057D02*
X116083333Y-112145295D01*
X116083333Y-112145295D02*
X116083333Y-112288152D01*
X116083333Y-112288152D02*
X116035714Y-112383390D01*
X116035714Y-112383390D02*
X115988095Y-112431009D01*
X115988095Y-112431009D02*
X115892857Y-112478628D01*
X115892857Y-112478628D02*
X115511905Y-112478628D01*
X116559524Y-112954819D02*
X116750000Y-112954819D01*
X116750000Y-112954819D02*
X116845238Y-112907200D01*
X116845238Y-112907200D02*
X116892857Y-112859580D01*
X116892857Y-112859580D02*
X116988095Y-112716723D01*
X116988095Y-112716723D02*
X117035714Y-112526247D01*
X117035714Y-112526247D02*
X117035714Y-112145295D01*
X117035714Y-112145295D02*
X116988095Y-112050057D01*
X116988095Y-112050057D02*
X116940476Y-112002438D01*
X116940476Y-112002438D02*
X116845238Y-111954819D01*
X116845238Y-111954819D02*
X116654762Y-111954819D01*
X116654762Y-111954819D02*
X116559524Y-112002438D01*
X116559524Y-112002438D02*
X116511905Y-112050057D01*
X116511905Y-112050057D02*
X116464286Y-112145295D01*
X116464286Y-112145295D02*
X116464286Y-112383390D01*
X116464286Y-112383390D02*
X116511905Y-112478628D01*
X116511905Y-112478628D02*
X116559524Y-112526247D01*
X116559524Y-112526247D02*
X116654762Y-112573866D01*
X116654762Y-112573866D02*
X116845238Y-112573866D01*
X116845238Y-112573866D02*
X116940476Y-112526247D01*
X116940476Y-112526247D02*
X116988095Y-112478628D01*
X116988095Y-112478628D02*
X117035714Y-112383390D01*
X104704819Y-97166666D02*
X104228628Y-97499999D01*
X104704819Y-97738094D02*
X103704819Y-97738094D01*
X103704819Y-97738094D02*
X103704819Y-97357142D01*
X103704819Y-97357142D02*
X103752438Y-97261904D01*
X103752438Y-97261904D02*
X103800057Y-97214285D01*
X103800057Y-97214285D02*
X103895295Y-97166666D01*
X103895295Y-97166666D02*
X104038152Y-97166666D01*
X104038152Y-97166666D02*
X104133390Y-97214285D01*
X104133390Y-97214285D02*
X104181009Y-97261904D01*
X104181009Y-97261904D02*
X104228628Y-97357142D01*
X104228628Y-97357142D02*
X104228628Y-97738094D01*
X103704819Y-96833332D02*
X103704819Y-96214285D01*
X103704819Y-96214285D02*
X104085771Y-96547618D01*
X104085771Y-96547618D02*
X104085771Y-96404761D01*
X104085771Y-96404761D02*
X104133390Y-96309523D01*
X104133390Y-96309523D02*
X104181009Y-96261904D01*
X104181009Y-96261904D02*
X104276247Y-96214285D01*
X104276247Y-96214285D02*
X104514342Y-96214285D01*
X104514342Y-96214285D02*
X104609580Y-96261904D01*
X104609580Y-96261904D02*
X104657200Y-96309523D01*
X104657200Y-96309523D02*
X104704819Y-96404761D01*
X104704819Y-96404761D02*
X104704819Y-96690475D01*
X104704819Y-96690475D02*
X104657200Y-96785713D01*
X104657200Y-96785713D02*
X104609580Y-96833332D01*
X160824819Y-119142857D02*
X160348628Y-119476190D01*
X160824819Y-119714285D02*
X159824819Y-119714285D01*
X159824819Y-119714285D02*
X159824819Y-119333333D01*
X159824819Y-119333333D02*
X159872438Y-119238095D01*
X159872438Y-119238095D02*
X159920057Y-119190476D01*
X159920057Y-119190476D02*
X160015295Y-119142857D01*
X160015295Y-119142857D02*
X160158152Y-119142857D01*
X160158152Y-119142857D02*
X160253390Y-119190476D01*
X160253390Y-119190476D02*
X160301009Y-119238095D01*
X160301009Y-119238095D02*
X160348628Y-119333333D01*
X160348628Y-119333333D02*
X160348628Y-119714285D01*
X160824819Y-118190476D02*
X160824819Y-118761904D01*
X160824819Y-118476190D02*
X159824819Y-118476190D01*
X159824819Y-118476190D02*
X159967676Y-118571428D01*
X159967676Y-118571428D02*
X160062914Y-118666666D01*
X160062914Y-118666666D02*
X160110533Y-118761904D01*
X159824819Y-117857142D02*
X159824819Y-117238095D01*
X159824819Y-117238095D02*
X160205771Y-117571428D01*
X160205771Y-117571428D02*
X160205771Y-117428571D01*
X160205771Y-117428571D02*
X160253390Y-117333333D01*
X160253390Y-117333333D02*
X160301009Y-117285714D01*
X160301009Y-117285714D02*
X160396247Y-117238095D01*
X160396247Y-117238095D02*
X160634342Y-117238095D01*
X160634342Y-117238095D02*
X160729580Y-117285714D01*
X160729580Y-117285714D02*
X160777200Y-117333333D01*
X160777200Y-117333333D02*
X160824819Y-117428571D01*
X160824819Y-117428571D02*
X160824819Y-117714285D01*
X160824819Y-117714285D02*
X160777200Y-117809523D01*
X160777200Y-117809523D02*
X160729580Y-117857142D01*
X87124819Y-123951904D02*
X87934342Y-123951904D01*
X87934342Y-123951904D02*
X88029580Y-123904285D01*
X88029580Y-123904285D02*
X88077200Y-123856666D01*
X88077200Y-123856666D02*
X88124819Y-123761428D01*
X88124819Y-123761428D02*
X88124819Y-123570952D01*
X88124819Y-123570952D02*
X88077200Y-123475714D01*
X88077200Y-123475714D02*
X88029580Y-123428095D01*
X88029580Y-123428095D02*
X87934342Y-123380476D01*
X87934342Y-123380476D02*
X87124819Y-123380476D01*
X87124819Y-122428095D02*
X87124819Y-122904285D01*
X87124819Y-122904285D02*
X87601009Y-122951904D01*
X87601009Y-122951904D02*
X87553390Y-122904285D01*
X87553390Y-122904285D02*
X87505771Y-122809047D01*
X87505771Y-122809047D02*
X87505771Y-122570952D01*
X87505771Y-122570952D02*
X87553390Y-122475714D01*
X87553390Y-122475714D02*
X87601009Y-122428095D01*
X87601009Y-122428095D02*
X87696247Y-122380476D01*
X87696247Y-122380476D02*
X87934342Y-122380476D01*
X87934342Y-122380476D02*
X88029580Y-122428095D01*
X88029580Y-122428095D02*
X88077200Y-122475714D01*
X88077200Y-122475714D02*
X88124819Y-122570952D01*
X88124819Y-122570952D02*
X88124819Y-122809047D01*
X88124819Y-122809047D02*
X88077200Y-122904285D01*
X88077200Y-122904285D02*
X88029580Y-122951904D01*
X87124819Y-109951904D02*
X87934342Y-109951904D01*
X87934342Y-109951904D02*
X88029580Y-109904285D01*
X88029580Y-109904285D02*
X88077200Y-109856666D01*
X88077200Y-109856666D02*
X88124819Y-109761428D01*
X88124819Y-109761428D02*
X88124819Y-109570952D01*
X88124819Y-109570952D02*
X88077200Y-109475714D01*
X88077200Y-109475714D02*
X88029580Y-109428095D01*
X88029580Y-109428095D02*
X87934342Y-109380476D01*
X87934342Y-109380476D02*
X87124819Y-109380476D01*
X87458152Y-108475714D02*
X88124819Y-108475714D01*
X87077200Y-108713809D02*
X87791485Y-108951904D01*
X87791485Y-108951904D02*
X87791485Y-108332857D01*
X137174761Y-126250057D02*
X137079523Y-126202438D01*
X137079523Y-126202438D02*
X136984285Y-126107200D01*
X136984285Y-126107200D02*
X136841428Y-125964342D01*
X136841428Y-125964342D02*
X136746190Y-125916723D01*
X136746190Y-125916723D02*
X136650952Y-125916723D01*
X136698571Y-126154819D02*
X136603333Y-126107200D01*
X136603333Y-126107200D02*
X136508095Y-126011961D01*
X136508095Y-126011961D02*
X136460476Y-125821485D01*
X136460476Y-125821485D02*
X136460476Y-125488152D01*
X136460476Y-125488152D02*
X136508095Y-125297676D01*
X136508095Y-125297676D02*
X136603333Y-125202438D01*
X136603333Y-125202438D02*
X136698571Y-125154819D01*
X136698571Y-125154819D02*
X136889047Y-125154819D01*
X136889047Y-125154819D02*
X136984285Y-125202438D01*
X136984285Y-125202438D02*
X137079523Y-125297676D01*
X137079523Y-125297676D02*
X137127142Y-125488152D01*
X137127142Y-125488152D02*
X137127142Y-125821485D01*
X137127142Y-125821485D02*
X137079523Y-126011961D01*
X137079523Y-126011961D02*
X136984285Y-126107200D01*
X136984285Y-126107200D02*
X136889047Y-126154819D01*
X136889047Y-126154819D02*
X136698571Y-126154819D01*
X138079523Y-126154819D02*
X137508095Y-126154819D01*
X137793809Y-126154819D02*
X137793809Y-125154819D01*
X137793809Y-125154819D02*
X137698571Y-125297676D01*
X137698571Y-125297676D02*
X137603333Y-125392914D01*
X137603333Y-125392914D02*
X137508095Y-125440533D01*
X114954819Y-107261904D02*
X115764342Y-107261904D01*
X115764342Y-107261904D02*
X115859580Y-107214285D01*
X115859580Y-107214285D02*
X115907200Y-107166666D01*
X115907200Y-107166666D02*
X115954819Y-107071428D01*
X115954819Y-107071428D02*
X115954819Y-106880952D01*
X115954819Y-106880952D02*
X115907200Y-106785714D01*
X115907200Y-106785714D02*
X115859580Y-106738095D01*
X115859580Y-106738095D02*
X115764342Y-106690476D01*
X115764342Y-106690476D02*
X114954819Y-106690476D01*
X114954819Y-106309523D02*
X114954819Y-105690476D01*
X114954819Y-105690476D02*
X115335771Y-106023809D01*
X115335771Y-106023809D02*
X115335771Y-105880952D01*
X115335771Y-105880952D02*
X115383390Y-105785714D01*
X115383390Y-105785714D02*
X115431009Y-105738095D01*
X115431009Y-105738095D02*
X115526247Y-105690476D01*
X115526247Y-105690476D02*
X115764342Y-105690476D01*
X115764342Y-105690476D02*
X115859580Y-105738095D01*
X115859580Y-105738095D02*
X115907200Y-105785714D01*
X115907200Y-105785714D02*
X115954819Y-105880952D01*
X115954819Y-105880952D02*
X115954819Y-106166666D01*
X115954819Y-106166666D02*
X115907200Y-106261904D01*
X115907200Y-106261904D02*
X115859580Y-106309523D01*
X122574580Y-104594285D02*
X122622200Y-104641904D01*
X122622200Y-104641904D02*
X122669819Y-104784761D01*
X122669819Y-104784761D02*
X122669819Y-104879999D01*
X122669819Y-104879999D02*
X122622200Y-105022856D01*
X122622200Y-105022856D02*
X122526961Y-105118094D01*
X122526961Y-105118094D02*
X122431723Y-105165713D01*
X122431723Y-105165713D02*
X122241247Y-105213332D01*
X122241247Y-105213332D02*
X122098390Y-105213332D01*
X122098390Y-105213332D02*
X121907914Y-105165713D01*
X121907914Y-105165713D02*
X121812676Y-105118094D01*
X121812676Y-105118094D02*
X121717438Y-105022856D01*
X121717438Y-105022856D02*
X121669819Y-104879999D01*
X121669819Y-104879999D02*
X121669819Y-104784761D01*
X121669819Y-104784761D02*
X121717438Y-104641904D01*
X121717438Y-104641904D02*
X121765057Y-104594285D01*
X122574580Y-103594285D02*
X122622200Y-103641904D01*
X122622200Y-103641904D02*
X122669819Y-103784761D01*
X122669819Y-103784761D02*
X122669819Y-103879999D01*
X122669819Y-103879999D02*
X122622200Y-104022856D01*
X122622200Y-104022856D02*
X122526961Y-104118094D01*
X122526961Y-104118094D02*
X122431723Y-104165713D01*
X122431723Y-104165713D02*
X122241247Y-104213332D01*
X122241247Y-104213332D02*
X122098390Y-104213332D01*
X122098390Y-104213332D02*
X121907914Y-104165713D01*
X121907914Y-104165713D02*
X121812676Y-104118094D01*
X121812676Y-104118094D02*
X121717438Y-104022856D01*
X121717438Y-104022856D02*
X121669819Y-103879999D01*
X121669819Y-103879999D02*
X121669819Y-103784761D01*
X121669819Y-103784761D02*
X121717438Y-103641904D01*
X121717438Y-103641904D02*
X121765057Y-103594285D01*
X121669819Y-102689523D02*
X121669819Y-103165713D01*
X121669819Y-103165713D02*
X122146009Y-103213332D01*
X122146009Y-103213332D02*
X122098390Y-103165713D01*
X122098390Y-103165713D02*
X122050771Y-103070475D01*
X122050771Y-103070475D02*
X122050771Y-102832380D01*
X122050771Y-102832380D02*
X122098390Y-102737142D01*
X122098390Y-102737142D02*
X122146009Y-102689523D01*
X122146009Y-102689523D02*
X122241247Y-102641904D01*
X122241247Y-102641904D02*
X122479342Y-102641904D01*
X122479342Y-102641904D02*
X122574580Y-102689523D01*
X122574580Y-102689523D02*
X122622200Y-102737142D01*
X122622200Y-102737142D02*
X122669819Y-102832380D01*
X122669819Y-102832380D02*
X122669819Y-103070475D01*
X122669819Y-103070475D02*
X122622200Y-103165713D01*
X122622200Y-103165713D02*
X122574580Y-103213332D01*
X121669819Y-101784761D02*
X121669819Y-101975237D01*
X121669819Y-101975237D02*
X121717438Y-102070475D01*
X121717438Y-102070475D02*
X121765057Y-102118094D01*
X121765057Y-102118094D02*
X121907914Y-102213332D01*
X121907914Y-102213332D02*
X122098390Y-102260951D01*
X122098390Y-102260951D02*
X122479342Y-102260951D01*
X122479342Y-102260951D02*
X122574580Y-102213332D01*
X122574580Y-102213332D02*
X122622200Y-102165713D01*
X122622200Y-102165713D02*
X122669819Y-102070475D01*
X122669819Y-102070475D02*
X122669819Y-101879999D01*
X122669819Y-101879999D02*
X122622200Y-101784761D01*
X122622200Y-101784761D02*
X122574580Y-101737142D01*
X122574580Y-101737142D02*
X122479342Y-101689523D01*
X122479342Y-101689523D02*
X122241247Y-101689523D01*
X122241247Y-101689523D02*
X122146009Y-101737142D01*
X122146009Y-101737142D02*
X122098390Y-101784761D01*
X122098390Y-101784761D02*
X122050771Y-101879999D01*
X122050771Y-101879999D02*
X122050771Y-102070475D01*
X122050771Y-102070475D02*
X122098390Y-102165713D01*
X122098390Y-102165713D02*
X122146009Y-102213332D01*
X122146009Y-102213332D02*
X122241247Y-102260951D01*
X122288866Y-101260951D02*
X122288866Y-100499047D01*
X122669819Y-99499047D02*
X122669819Y-100070475D01*
X122669819Y-99784761D02*
X121669819Y-99784761D01*
X121669819Y-99784761D02*
X121812676Y-99879999D01*
X121812676Y-99879999D02*
X121907914Y-99975237D01*
X121907914Y-99975237D02*
X121955533Y-100070475D01*
X121765057Y-99118094D02*
X121717438Y-99070475D01*
X121717438Y-99070475D02*
X121669819Y-98975237D01*
X121669819Y-98975237D02*
X121669819Y-98737142D01*
X121669819Y-98737142D02*
X121717438Y-98641904D01*
X121717438Y-98641904D02*
X121765057Y-98594285D01*
X121765057Y-98594285D02*
X121860295Y-98546666D01*
X121860295Y-98546666D02*
X121955533Y-98546666D01*
X121955533Y-98546666D02*
X122098390Y-98594285D01*
X122098390Y-98594285D02*
X122669819Y-99165713D01*
X122669819Y-99165713D02*
X122669819Y-98546666D01*
X122622200Y-98165713D02*
X122669819Y-98022856D01*
X122669819Y-98022856D02*
X122669819Y-97784761D01*
X122669819Y-97784761D02*
X122622200Y-97689523D01*
X122622200Y-97689523D02*
X122574580Y-97641904D01*
X122574580Y-97641904D02*
X122479342Y-97594285D01*
X122479342Y-97594285D02*
X122384104Y-97594285D01*
X122384104Y-97594285D02*
X122288866Y-97641904D01*
X122288866Y-97641904D02*
X122241247Y-97689523D01*
X122241247Y-97689523D02*
X122193628Y-97784761D01*
X122193628Y-97784761D02*
X122146009Y-97975237D01*
X122146009Y-97975237D02*
X122098390Y-98070475D01*
X122098390Y-98070475D02*
X122050771Y-98118094D01*
X122050771Y-98118094D02*
X121955533Y-98165713D01*
X121955533Y-98165713D02*
X121860295Y-98165713D01*
X121860295Y-98165713D02*
X121765057Y-98118094D01*
X121765057Y-98118094D02*
X121717438Y-98070475D01*
X121717438Y-98070475D02*
X121669819Y-97975237D01*
X121669819Y-97975237D02*
X121669819Y-97737142D01*
X121669819Y-97737142D02*
X121717438Y-97594285D01*
X121669819Y-97165713D02*
X122479342Y-97165713D01*
X122479342Y-97165713D02*
X122574580Y-97118094D01*
X122574580Y-97118094D02*
X122622200Y-97070475D01*
X122622200Y-97070475D02*
X122669819Y-96975237D01*
X122669819Y-96975237D02*
X122669819Y-96784761D01*
X122669819Y-96784761D02*
X122622200Y-96689523D01*
X122622200Y-96689523D02*
X122574580Y-96641904D01*
X122574580Y-96641904D02*
X122479342Y-96594285D01*
X122479342Y-96594285D02*
X121669819Y-96594285D01*
X122669819Y-95546666D02*
X122193628Y-95879999D01*
X122669819Y-96118094D02*
X121669819Y-96118094D01*
X121669819Y-96118094D02*
X121669819Y-95737142D01*
X121669819Y-95737142D02*
X121717438Y-95641904D01*
X121717438Y-95641904D02*
X121765057Y-95594285D01*
X121765057Y-95594285D02*
X121860295Y-95546666D01*
X121860295Y-95546666D02*
X122003152Y-95546666D01*
X122003152Y-95546666D02*
X122098390Y-95594285D01*
X122098390Y-95594285D02*
X122146009Y-95641904D01*
X122146009Y-95641904D02*
X122193628Y-95737142D01*
X122193628Y-95737142D02*
X122193628Y-96118094D01*
X122669819Y-95118094D02*
X121669819Y-95118094D01*
X122669819Y-94546666D02*
X122098390Y-94975237D01*
X121669819Y-94546666D02*
X122241247Y-95118094D01*
X121669819Y-94213332D02*
X122669819Y-93975237D01*
X122669819Y-93975237D02*
X121955533Y-93784761D01*
X121955533Y-93784761D02*
X122669819Y-93594285D01*
X122669819Y-93594285D02*
X121669819Y-93356190D01*
X122384104Y-93022856D02*
X122384104Y-92546666D01*
X122669819Y-93118094D02*
X121669819Y-92784761D01*
X121669819Y-92784761D02*
X122669819Y-92451428D01*
X157944761Y-126150057D02*
X157849523Y-126102438D01*
X157849523Y-126102438D02*
X157754285Y-126007200D01*
X157754285Y-126007200D02*
X157611428Y-125864342D01*
X157611428Y-125864342D02*
X157516190Y-125816723D01*
X157516190Y-125816723D02*
X157420952Y-125816723D01*
X157468571Y-126054819D02*
X157373333Y-126007200D01*
X157373333Y-126007200D02*
X157278095Y-125911961D01*
X157278095Y-125911961D02*
X157230476Y-125721485D01*
X157230476Y-125721485D02*
X157230476Y-125388152D01*
X157230476Y-125388152D02*
X157278095Y-125197676D01*
X157278095Y-125197676D02*
X157373333Y-125102438D01*
X157373333Y-125102438D02*
X157468571Y-125054819D01*
X157468571Y-125054819D02*
X157659047Y-125054819D01*
X157659047Y-125054819D02*
X157754285Y-125102438D01*
X157754285Y-125102438D02*
X157849523Y-125197676D01*
X157849523Y-125197676D02*
X157897142Y-125388152D01*
X157897142Y-125388152D02*
X157897142Y-125721485D01*
X157897142Y-125721485D02*
X157849523Y-125911961D01*
X157849523Y-125911961D02*
X157754285Y-126007200D01*
X157754285Y-126007200D02*
X157659047Y-126054819D01*
X157659047Y-126054819D02*
X157468571Y-126054819D01*
X158754285Y-125388152D02*
X158754285Y-126054819D01*
X158516190Y-125007200D02*
X158278095Y-125721485D01*
X158278095Y-125721485D02*
X158897142Y-125721485D01*
X140333333Y-134084819D02*
X140000000Y-133608628D01*
X139761905Y-134084819D02*
X139761905Y-133084819D01*
X139761905Y-133084819D02*
X140142857Y-133084819D01*
X140142857Y-133084819D02*
X140238095Y-133132438D01*
X140238095Y-133132438D02*
X140285714Y-133180057D01*
X140285714Y-133180057D02*
X140333333Y-133275295D01*
X140333333Y-133275295D02*
X140333333Y-133418152D01*
X140333333Y-133418152D02*
X140285714Y-133513390D01*
X140285714Y-133513390D02*
X140238095Y-133561009D01*
X140238095Y-133561009D02*
X140142857Y-133608628D01*
X140142857Y-133608628D02*
X139761905Y-133608628D01*
X141285714Y-134084819D02*
X140714286Y-134084819D01*
X141000000Y-134084819D02*
X141000000Y-133084819D01*
X141000000Y-133084819D02*
X140904762Y-133227676D01*
X140904762Y-133227676D02*
X140809524Y-133322914D01*
X140809524Y-133322914D02*
X140714286Y-133370533D01*
%TO.C,R5*%
D12*
X119960000Y-125000000D02*
X120730000Y-125000000D01*
X128040000Y-125000000D02*
X127270000Y-125000000D01*
X120730000Y-123630000D02*
X127270000Y-123630000D01*
X127270000Y-126370000D01*
X120730000Y-126370000D01*
X120730000Y-123630000D01*
%TO.C,SW1*%
X137500000Y-143500000D02*
X137500000Y-148000000D01*
X140000000Y-149250000D02*
X141500000Y-149250000D01*
X141500000Y-142250000D02*
X140000000Y-142250000D01*
X144000000Y-148000000D02*
X144000000Y-143500000D01*
%TO.C,Q3*%
X149365000Y-131532000D02*
X153175000Y-131532000D01*
X149294344Y-131475656D02*
G75*
G02*
X151270000Y-126706000I1975656J1975656D01*
G01*
X151270000Y-126706000D02*
G75*
G02*
X153245656Y-131475656I0J-2794000D01*
G01*
%TO.C,C2*%
X81630000Y-120530000D02*
X81960000Y-120530000D01*
X81630000Y-125470000D02*
X81630000Y-120530000D01*
X81960000Y-125470000D02*
X81630000Y-125470000D01*
X84040000Y-120530000D02*
X84370000Y-120530000D01*
X84370000Y-120530000D02*
X84370000Y-125470000D01*
X84370000Y-125470000D02*
X84040000Y-125470000D01*
%TO.C,R11*%
X144250000Y-114460000D02*
X144250000Y-115230000D01*
X144250000Y-122540000D02*
X144250000Y-121770000D01*
X142880000Y-115230000D02*
X145620000Y-115230000D01*
X145620000Y-121770000D01*
X142880000Y-121770000D01*
X142880000Y-115230000D01*
%TO.C,U1*%
D13*
X80260000Y-134120000D02*
X130960000Y-134120000D01*
X130960000Y-153120000D01*
X80260000Y-153120000D01*
X80260000Y-134120000D01*
%TO.C,R8*%
D12*
X119960000Y-121000000D02*
X120730000Y-121000000D01*
X128040000Y-121000000D02*
X127270000Y-121000000D01*
X120730000Y-119630000D02*
X127270000Y-119630000D01*
X127270000Y-122370000D01*
X120730000Y-122370000D01*
X120730000Y-119630000D01*
%TO.C,R12*%
X151300000Y-114460000D02*
X151300000Y-115230000D01*
X151300000Y-122540000D02*
X151300000Y-121770000D01*
X149930000Y-115230000D02*
X152670000Y-115230000D01*
X152670000Y-121770000D01*
X149930000Y-121770000D01*
X149930000Y-115230000D01*
%TO.C,C1*%
X81630000Y-106530000D02*
X81960000Y-106530000D01*
X81630000Y-111470000D02*
X81630000Y-106530000D01*
X81960000Y-111470000D02*
X81630000Y-111470000D01*
X84040000Y-106530000D02*
X84370000Y-106530000D01*
X84370000Y-106530000D02*
X84370000Y-111470000D01*
X84370000Y-111470000D02*
X84040000Y-111470000D01*
%TO.C,Q2*%
X142365000Y-131532000D02*
X146175000Y-131532000D01*
X142294344Y-131475656D02*
G75*
G02*
X144270000Y-126706000I1975656J1975656D01*
G01*
X144270000Y-126706000D02*
G75*
G02*
X146245656Y-131475656I0J-2794000D01*
G01*
%TO.C,R7*%
X111000000Y-91460000D02*
X111000000Y-92230000D01*
X111000000Y-99540000D02*
X111000000Y-98770000D01*
X109630000Y-92230000D02*
X112370000Y-92230000D01*
X112370000Y-98770000D01*
X109630000Y-98770000D01*
X109630000Y-92230000D01*
%TO.C,R6*%
X119960000Y-117000000D02*
X120730000Y-117000000D01*
X128040000Y-117000000D02*
X127270000Y-117000000D01*
X120730000Y-115630000D02*
X127270000Y-115630000D01*
X127270000Y-118370000D01*
X120730000Y-118370000D01*
X120730000Y-115630000D01*
%TO.C,R4*%
X119960000Y-129000000D02*
X120730000Y-129000000D01*
X128040000Y-129000000D02*
X127270000Y-129000000D01*
X120730000Y-127630000D02*
X127270000Y-127630000D01*
X127270000Y-130370000D01*
X120730000Y-130370000D01*
X120730000Y-127630000D01*
%TO.C,R10*%
X137250000Y-114460000D02*
X137250000Y-115230000D01*
X137250000Y-122540000D02*
X137250000Y-121770000D01*
X135880000Y-115230000D02*
X138620000Y-115230000D01*
X138620000Y-121770000D01*
X135880000Y-121770000D01*
X135880000Y-115230000D01*
%TO.C,R2*%
X102000000Y-91460000D02*
X102000000Y-92230000D01*
X102000000Y-99540000D02*
X102000000Y-98770000D01*
X100630000Y-92230000D02*
X103370000Y-92230000D01*
X103370000Y-98770000D01*
X100630000Y-98770000D01*
X100630000Y-92230000D01*
%TO.C,U2*%
D13*
X150625000Y-137700000D02*
X167375000Y-137700000D01*
X167375000Y-150250000D01*
X150625000Y-150250000D01*
X150625000Y-137700000D01*
%TO.C,R9*%
D12*
X119960000Y-113000000D02*
X120730000Y-113000000D01*
X128040000Y-113000000D02*
X127270000Y-113000000D01*
X120730000Y-111630000D02*
X127270000Y-111630000D01*
X127270000Y-114370000D01*
X120730000Y-114370000D01*
X120730000Y-111630000D01*
%TO.C,R3*%
X106500000Y-91460000D02*
X106500000Y-92230000D01*
X106500000Y-99540000D02*
X106500000Y-98770000D01*
X105130000Y-92230000D02*
X107870000Y-92230000D01*
X107870000Y-98770000D01*
X105130000Y-98770000D01*
X105130000Y-92230000D01*
%TO.C,R13*%
X158000000Y-114460000D02*
X158000000Y-115230000D01*
X158000000Y-122540000D02*
X158000000Y-121770000D01*
X156630000Y-115230000D02*
X159370000Y-115230000D01*
X159370000Y-121770000D01*
X156630000Y-121770000D01*
X156630000Y-115230000D01*
%TO.C,U5*%
X88670000Y-120540000D02*
X88670000Y-122190000D01*
X88670000Y-124190000D02*
X88670000Y-125840000D01*
X88670000Y-125840000D02*
X109110000Y-125840000D01*
X109110000Y-120540000D02*
X88670000Y-120540000D01*
X109110000Y-125840000D02*
X109110000Y-120540000D01*
X88610000Y-118050000D02*
X109170000Y-118050000D01*
X109170000Y-128330000D01*
X88610000Y-128330000D01*
X88610000Y-118050000D01*
X88670000Y-122190000D02*
G75*
G02*
X88670000Y-124190000I0J-1000000D01*
G01*
%TO.C,U4*%
X88670000Y-106540000D02*
X88670000Y-108190000D01*
X88670000Y-110190000D02*
X88670000Y-111840000D01*
X88670000Y-111840000D02*
X109110000Y-111840000D01*
X109110000Y-106540000D02*
X88670000Y-106540000D01*
X109110000Y-111840000D02*
X109110000Y-106540000D01*
X88610000Y-104050000D02*
X109170000Y-104050000D01*
X109170000Y-114330000D01*
X88610000Y-114330000D01*
X88610000Y-104050000D01*
X88670000Y-108190000D02*
G75*
G02*
X88670000Y-110190000I0J-1000000D01*
G01*
%TO.C,Q1*%
X135365000Y-131532000D02*
X139175000Y-131532000D01*
X135294344Y-131475656D02*
G75*
G02*
X137270000Y-126706000I1975656J1975656D01*
G01*
X137270000Y-126706000D02*
G75*
G02*
X139245656Y-131475656I0J-2794000D01*
G01*
%TO.C,U3*%
X116580000Y-108500000D02*
X116580000Y-89260000D01*
X116580000Y-108500000D02*
X167120000Y-108500000D01*
X134500000Y-108880000D02*
X136500000Y-108880000D01*
X167120000Y-89260000D02*
X116580000Y-89260000D01*
X167120000Y-108500000D02*
X167120000Y-89260000D01*
%TO.C,Q4*%
X156135000Y-131392000D02*
X159945000Y-131392000D01*
X156064344Y-131335656D02*
G75*
G02*
X158040000Y-126566000I1975656J1975656D01*
G01*
X158040000Y-126566000D02*
G75*
G02*
X160015656Y-131335656I0J-2794000D01*
G01*
%TO.C,R1*%
X136460000Y-136000000D02*
X137230000Y-136000000D01*
X144540000Y-136000000D02*
X143770000Y-136000000D01*
X137230000Y-134630000D02*
X143770000Y-134630000D01*
X143770000Y-137370000D01*
X137230000Y-137370000D01*
X137230000Y-134630000D01*
%TD*%
M02*
